<?xml version="1.0" encoding="utf-8"?>
<!-- Generator: Adobe Illustrator 28.4.1, SVG Export Plug-In . SVG Version: 6.00 Build 0)  -->
<svg version="1.1" id="Livello_1" xmlns="http://www.w3.org/2000/svg" xmlns:xlink="http://www.w3.org/1999/xlink" x="0px" y="0px"
	 viewBox="0 0 243.2 138.2" style="enable-background:new 0 0 243.2 138.2;" xml:space="preserve">
<style type="text/css">
	.st0{fill:#FFFFFF;}
</style>
<g>
	<path class="st0" d="M30.3,60.2l2.7,8.8h-5.9L30.3,60.2z M27.6,56.1L17.5,82.5h5.2l3.2-9.2h8.2l2.8,9.2H42l-8.7-26.4H27.6z"/>
	<path class="st0" d="M41.7,56.1V74c0,6.2,4,9,9.9,9c5.9,0,9.9-2.8,9.9-9V56.1h-4.8v16.1c0,4.1-1.5,6.6-5.1,6.6
		c-3.6,0-5.1-2.5-5.1-6.6V56.1H41.7z"/>
	<polygon class="st0" points="62.2,60.3 68.8,60.3 68.8,82.5 73.6,82.5 73.6,60.3 80.1,60.3 80.1,56.1 62.2,56.1 	"/>
	<polygon class="st0" points="104.1,60.3 110.6,60.3 110.6,82.5 115.4,82.5 115.4,60.3 122,60.3 122,56.1 104.1,56.1 	"/>
	<path class="st0" d="M148.4,82.5h4.5V59.9h4.2c2.6,0,3.3,1.8,3.3,3.7c0,3.1-2.1,4.5-4.5,4.5c-0.4,0-1.3-0.2-1.9-0.2l5.9,14.6h5
		l-5.6-12.1c3.4-1,5.5-2.8,5.5-7.6c0-4.4-2.8-6.7-6.9-6.7h-9.7V82.5z"/>
	<rect x="167.2" y="56.1" class="st0" width="4.8" height="26.4"/>
	<polygon class="st0" points="175.6,82.5 179.8,82.5 179.8,62.9 179.8,62.9 190.3,82.5 196,82.5 196,56.1 191.8,56.1 191.8,75.9 
		191.8,75.9 181.4,56.1 175.6,56.1 	"/>
	<path class="st0" d="M52.8,47.1c-0.7-0.3-1.6-0.5-2.6-0.5c-2.4,0-4,1.4-4,3.4c0,2,1.6,3.4,4,3.4c1.1,0,2.3-0.4,2.8-0.9v-2.7h-2.6
		V51h1v0.8c-0.5,0.2-0.7,0.2-1.1,0.2c-1.4,0-2.3-0.8-2.3-2c0-1,0.6-2.1,2.4-2.1c0.8,0,1.6,0.2,2.5,0.6V47.1z"/>
	<path class="st0" d="M55.8,47.8h0.8c0.6,0,0.9,0.3,0.9,0.8c0,0.6-0.4,0.8-0.9,0.8h-0.9V47.8z M54.2,46.6v6.7h1.7v-2.7h0.5
		c0.9,0,1.2,1.3,1.9,2.7H60c-0.9-2-1.1-2.8-1.8-3.1c0.8-0.4,1.1-0.9,1.1-1.6c0-1-0.8-1.9-2.2-1.9H54.2z"/>
	<path class="st0" d="M65.2,46.6v3.7c0,1.2-0.8,1.6-1.7,1.6c-1,0-1.6-0.6-1.6-1.5v-3.8h-1.7v3.8c0,2.1,1.4,3,3.3,3
		c1.8,0,3.3-0.8,3.3-3v-3.8H65.2z"/>
	<path class="st0" d="M69.8,47.8h0.6c0.9,0,1.2,0.2,1.2,0.8c0,0.5-0.3,0.8-1,0.8h-0.8V47.8z M68.2,46.6v6.7h1.7v-2.7h1.3
		c1.5,0,2.2-1.1,2.2-2c0-0.9-0.7-2-2.2-2H68.2z"/>
	<path class="st0" d="M76.1,47.8h0.6c0.9,0,1.2,0.2,1.2,0.8c0,0.5-0.3,0.8-1,0.8h-0.8V47.8z M74.4,46.6v6.7h1.7v-2.7h1.3
		c1.5,0,2.2-1.1,2.2-2c0-0.9-0.7-2-2.2-2H74.4z"/>
	<path class="st0" d="M86.2,50c0,1.2-0.8,2-2.1,2c-1.3,0-2.1-0.8-2.1-2c0-1.2,0.8-2,2.1-2C85.3,47.9,86.2,48.7,86.2,50 M87.9,50
		c0-1.6-1.3-3.4-3.8-3.4c-2.5,0-3.8,1.8-3.8,3.4c0,1.7,1.4,3.4,3.8,3.4C86.5,53.4,87.9,51.7,87.9,50"/>
	<path class="st0" d="M187.2,85.3c-0.8-0.4-1.5-0.5-2.3-0.5c-1.5,0-2.5,0.8-2.5,1.9c0,2.4,3.4,2,3.4,3.1c0,0.4-0.3,0.6-1,0.6
		c-0.7,0-1.3-0.2-2.3-0.9V91c0.7,0.3,1.2,0.6,2.4,0.6c1.5,0,2.6-0.7,2.6-2c0-2.3-3.4-2-3.4-3c0-0.3,0.4-0.5,1-0.5
		c0.6,0,1.1,0.2,2.1,0.6V85.3z"/>
	<path class="st0" d="M190.1,86.1h0.6c0.9,0,1.2,0.2,1.2,0.8c0,0.5-0.3,0.8-1,0.8h-0.8V86.1z M188.5,84.9v6.7h1.7v-2.7h1.3
		c1.5,0,2.2-1.1,2.2-2c0-0.9-0.7-2-2.2-2H188.5z"/>
	<path class="st0" d="M196.5,86.5l1.1,2.6h-2L196.5,86.5z M195.5,84.9l-2.7,6.7h1.8l0.5-1.3h3l0.5,1.3h1.8l-3-6.7H195.5z"/>
	<path class="st0" d="M101.3,72.8l-4.5-2.7c0-0.2,0-0.4,0-0.6c0-2.6-2.1-4.7-4.7-4.7c-2.2,0-4,1.5-4.6,3.6h-5.1
		c0.6-4.8,4.7-8.5,9.6-8.5c5.4,0,9.7,4.3,9.7,9.7C101.9,70.7,101.7,71.8,101.3,72.8 M90.7,69.5c0-0.9,0.7-1.6,1.6-1.6
		c0.9,0,1.6,0.7,1.6,1.6c0,0.9-0.7,1.6-1.6,1.6C91.4,71.1,90.7,70.4,90.7,69.5 M92.2,79.2c-4.8,0-8.9-3.5-9.6-8.1h5.2
		c0.6,1.8,2.4,3.2,4.4,3.2c1.4,0,2.7-0.6,3.6-1.6l4.3,2.6C98.3,77.6,95.5,79.2,92.2,79.2 M92.2,55.7c-7.6,0-13.7,6.1-13.7,13.7
		S84.7,83,92.2,83c7.6,0,13.7-6.1,13.7-13.7S99.8,55.7,92.2,55.7"/>
	<path class="st0" d="M143.2,72.8l-4.5-2.7c0-0.2,0-0.4,0-0.6c0-2.6-2.1-4.7-4.7-4.7c-2.2,0-4,1.5-4.6,3.6h-5.1
		c0.6-4.8,4.7-8.5,9.6-8.5c5.4,0,9.7,4.3,9.7,9.7C143.8,70.7,143.6,71.8,143.2,72.8 M132.6,69.5c0-0.9,0.7-1.6,1.6-1.6
		c0.9,0,1.6,0.7,1.6,1.6c0,0.9-0.7,1.6-1.6,1.6C133.3,71.1,132.6,70.4,132.6,69.5 M134.1,79.2c-4.8,0-8.9-3.5-9.6-8.1h5.2
		c0.6,1.8,2.4,3.2,4.4,3.2c1.4,0,2.7-0.6,3.6-1.6l4.3,2.6C140.2,77.6,137.3,79.2,134.1,79.2 M134.1,55.7c-7.6,0-13.7,6.1-13.7,13.7
		S126.6,83,134.1,83s13.7-6.1,13.7-13.7S141.7,55.7,134.1,55.7"/>
	<path class="st0" d="M221.1,72.8l-4.5-2.7c0-0.2,0-0.4,0-0.6c0-2.6-2.1-4.7-4.7-4.7c-2.2,0-4,1.5-4.6,3.6h-5.1
		c0.6-4.8,4.7-8.5,9.6-8.5c5.4,0,9.7,4.3,9.7,9.7C221.7,70.7,221.5,71.8,221.1,72.8 M210.5,69.5c0-0.9,0.7-1.6,1.6-1.6
		c0.9,0,1.6,0.7,1.6,1.6c0,0.9-0.7,1.6-1.6,1.6C211.1,71.1,210.5,70.4,210.5,69.5 M212,79.2c-4.8,0-8.9-3.5-9.6-8.1h5.2
		c0.6,1.8,2.4,3.2,4.4,3.2c1.4,0,2.7-0.6,3.6-1.6l4.3,2.6C218.1,77.6,215.2,79.2,212,79.2 M212,55.7c-7.6,0-13.7,6.1-13.7,13.7
		S204.4,83,212,83s13.7-6.1,13.7-13.7S219.6,55.7,212,55.7"/>
	<rect x="17.5" y="49.5" class="st0" width="25.2" height="0.4"/>
	<rect x="91.3" y="49.5" class="st0" width="134.4" height="0.4"/>
	<rect x="17.5" y="88.5" class="st0" width="161.5" height="0.4"/>
	<rect x="202.7" y="88.5" class="st0" width="23.1" height="0.4"/>
</g>
</svg>
