<?xml version="1.0" encoding="UTF-8"?><svg id="Livello_1" xmlns="http://www.w3.org/2000/svg" viewBox="0 0 1500 449.6"><defs><style>.cls-1{fill:#ec64a1;}.cls-2{fill:#fff;}.cls-3{fill:#010101;}</style></defs><path class="cls-3" d="M1500,110.69l-68.44-19.04C1212.79,30.84,983.49,0,750.01,0S287.22,30.84,68.45,91.65L0,110.68v54.2l113.92,284.71,68.45-19.03c182.13-50.63,373.11-76.31,567.64-76.31s385.51,25.67,567.64,76.31l68.46,19.03,113.89-284.71v-54.2Z"/><path class="cls-1" d="M1328.66,356.8c-185.66-51.62-380.35-77.79-578.66-77.79s-393,26.17-578.66,77.79l-37.04,10.3L36.68,123.12l42.79-11.9C294.69,51.39,520.29,21.05,750.01,21.05s455.32,30.33,670.52,90.16l42.79,11.9-97.61,243.98-37.05-10.3Z"/><path class="cls-2" d="M750.01,23.84c229.47,0,454.82,30.3,669.77,90.06l39.79,11.07-95.53,238.78-34.64-9.63c-185.91-51.69-380.85-77.89-579.41-77.89s-393.49,26.21-579.41,77.89l-34.64,9.63L40.42,124.96l39.79-11.07C295.19,54.14,520.54,23.84,750.01,23.84M750.01,18.27c-229.96,0-455.81,30.36-671.29,90.26l-45.78,12.73,99.7,249.19,39.44-10.97c185.43-51.55,379.87-77.69,577.91-77.69s392.49,26.14,577.91,77.69l39.45,10.97,99.69-249.19-45.78-12.73c-215.46-59.9-441.31-90.26-671.26-90.26h0Z"/><path class="cls-3" d="M170.75,312.72c-7.07-20.76-14.24-41.33-21.51-61.71-12.69-35.59-25.67-70.55-38.93-104.84,12.91-4.76,24.44-8.4,34.58-10.92,18.66-4.63,32.47-5.42,41.38-2.35,13.7,4.74,23.39,13.28,29.08,25.6,1.41,3.16,2.61,6.24,3.62,9.23,2.88,8.56,3.9,16.32,3.07,23.27-1.16,9.45-6.24,17.22-15.21,23.31,11.96-1.04,21.5,1.04,28.6,6.24,5.97,4.39,10.62,11.56,13.95,21.5.64,1.91,1.22,3.91,1.75,6,3.38,13.12,2.41,23.7-2.89,31.76-5.28,8.03-14.09,14.73-26.41,20.11-6.96,3-15.39,5.65-25.3,7.97-7.75,1.81-16.34,3.42-25.78,4.83ZM151.26,165.66l18.34,49.88c14.28-4.29,21.83-11.43,22.64-21.47.47-5.34-.1-10.36-1.71-15.05-1.34-3.92-3.46-7.61-6.36-11.07-5.07-6.01-13.3-7.62-24.67-4.83-2.53.62-5.27,1.47-8.24,2.54ZM179.28,238.87l13.28,38.01c1.8-.35,3.52-.71,5.14-1.09,14.4-3.4,22.19-9.4,23.36-18.01.63-4.82.35-8.98-.85-12.48-1.17-3.43-3.21-6.2-6.13-8.31-4.8-3.4-13.33-3.63-25.57-.7-2.88.69-5.96,1.55-9.22,2.58Z"/><path class="cls-3" d="M273.5,288.04c-2.72-68.31-5.68-127.75-8.89-177.55l46.09-9.46c23.98,48.14,50.8,101.84,80.27,160.71l-29.26,11.42-20.79-42.08-37.44,6.74,2.32,48.8-32.3,1.43ZM331.58,198.25c-8.56-16.32-20.73-35.65-36.57-58.06-2.15,21.71-2.97,43.73-2.46,66.03l39.03-7.97Z"/><path class="cls-3" d="M391.02,204.83l36.27-7.04c.37,5,.9,9.49,1.6,13.45,3.14,17.93,9.33,26.26,18.59,25.11l.49-.06c11.19-1.71,15.84-8.16,13.95-19.37l-.18-1.07c-2.43-11.93-15.15-22.38-38.18-31.32-22.44-8.63-36.05-25.96-40.83-52.19-.15-.82-.26-1.64-.32-2.48-4.47-27.87,8.86-44.26,40.11-48.92l1.01-.13c28.39-3.77,45.53,12.23,51.28,47.6.45,2.79.85,5.76,1.19,8.9l-32.5,6.09c-.29-3.72-.7-7.14-1.23-10.25-2.5-14.72-7.41-21.64-14.73-20.68-8.83,1.16-12.88,6.21-12.18,15.12.13,1.24.3,2.48.52,3.71,1.28,7.29,4.67,13.78,10.19,19.48,6.33,6.58,16.19,12.06,29.57,16.46,13.37,4.4,23.34,11.48,29.94,21.21,4.69,7.01,7.71,14.69,9.06,23.04.51,3.17.79,6.45.83,9.84.03,12.14-3.64,22.63-10.98,31.46-7.31,8.8-18.11,14.42-32.41,16.89-.97.2-1.93.35-2.91.47-13.1,1.61-24.83-1.61-35.25-9.66-10.06-7.73-17.23-23.25-21.52-46.71-.52-2.85-.98-5.83-1.39-8.95Z"/><path class="cls-3" d="M534.89,80.48l6.88,77.97c11.69-27.58,22.65-53.13,32.87-76.56l36.37-.86c-10.37,23.03-24.63,51.27-42.67,84.51,12.29,19.92,30.38,47.02,54.1,81.07l-39.65,3.37c-9.29-17.84-22.76-40.33-40.52-67.6l6.09,63.94-29.65,2.65c-3.71-42.23-8.92-96.42-15.72-163.39l31.91-5.11Z"/><path class="cls-3" d="M716.46,68.55l.25,35.91-51.27-.42.73,41.05,45.64-2.61,1.42,33.42-40.5,1.17.51,30.88,52.69-1.48.17,34.11-87.14,1.16c.39-22.41.31-45.19-.24-68.35-.77-32.48-2.47-65.68-5.1-99.63,19.6-1.4,47.2-3.14,82.84-5.23Z"/><path class="cls-3" d="M751.16,100.88l1.62-33.57c12.83.52,25.54.86,38.13,1.03,19.61.26,38.86.14,57.76-.38l-1.28,35.81-32.88-.47c-3.67,59.34-5.88,105.37-6.68,138.83l-35.75,1.06c4.98-57.13,8.98-104.79,11.92-142.36l-32.84.04Z"/><path class="cls-3" d="M883.35,244.78c-3.24-54.89-8.18-113.76-14.88-176.86l38.8-1.47,3.71,138.47c17.68-46.31,33.01-89.14,45.86-128.24l35.71,6.64c-29.55,75.1-50.87,128.95-64.53,163.02l-44.66-1.55Z"/><path class="cls-3" d="M1012.91,251.34l-31.87-.42c11.46-58.9,21.46-115.72,29.92-170.23l37.82.66c-12.51,57.16-24.46,113.82-35.88,169.99Z"/><path class="cls-3" d="M1115.4,83.11c-12.72,43.69-22.87,80.55-30.58,110.9-3.04,11.97-5.7,22.96-7.99,33l56.76,5.01-9.46,38.81-89.51-10.23c2.65-10.39,5.26-20.79,7.82-31.22,11.94-48.43,22.97-97.81,33.05-148.18l39.9,1.9Z"/><path class="cls-3" d="M1239.36,102.76c-16.04,43.02-29.01,79.35-39.04,109.3-3.95,11.81-7.45,22.66-10.51,32.58l56.03,7.65-12.41,38.3-88.22-14.37c3.44-10.26,6.85-20.53,10.22-30.82,15.65-47.82,30.46-96.64,44.41-146.47l39.53,3.83Z"/><path class="cls-3" d="M1399.15,146.3l-14.7,34.33-47.93-13.63-16.43,39.47,43.97,9.19-12.57,32.27-38.55-9.17-12.39,29.67,50.13,11.88-14.02,32.58-82.6-20.76c9.73-21.38,19.16-43.23,28.32-65.57,12.83-31.33,25.1-63.6,36.79-96.83,19.06,3.78,45.74,9.31,79.99,16.56Z"/><path class="cls-3" d="M161.68,307.35c-7.12-20.81-14.34-41.42-21.65-61.84-12.77-35.66-25.83-70.7-39.18-105.07,12.91-4.77,24.44-8.42,34.58-10.95,18.66-4.65,32.48-5.43,41.41-2.36,13.72,4.74,23.44,13.31,29.16,25.66,1.41,3.17,2.62,6.25,3.64,9.25,2.9,8.58,3.93,16.35,3.12,23.32-1.15,9.47-6.21,17.26-15.17,23.36,11.96-1.05,21.52,1.04,28.64,6.25,5.98,4.39,10.65,11.58,14,21.54.64,1.91,1.23,3.91,1.77,6.01,3.41,13.15,2.46,23.75-2.82,31.83-5.26,8.05-14.07,14.77-26.39,20.16-6.96,3-15.39,5.66-25.3,7.99-7.75,1.82-16.35,3.43-25.79,4.85ZM141.88,159.96l18.46,49.99c14.28-4.3,21.82-11.46,22.61-21.52.46-5.35-.12-10.38-1.74-15.09-1.35-3.92-3.48-7.62-6.39-11.09-5.08-6.02-13.32-7.64-24.7-4.83-2.53.62-5.27,1.47-8.24,2.55ZM170.06,233.34l13.36,38.09c1.8-.35,3.52-.71,5.14-1.1,14.4-3.41,22.19-9.42,23.34-18.05.62-4.83.33-9-.88-12.51-1.18-3.43-3.23-6.21-6.15-8.33-4.81-3.41-13.35-3.64-25.59-.7-2.88.69-5.96,1.56-9.22,2.59Z"/><path class="cls-2" d="M158.99,311.77l-1.07-3.14c-7.16-20.9-14.44-41.7-21.63-61.79-12.76-35.62-25.93-70.94-39.14-104.98l-1.46-3.77,3.79-1.4c12.97-4.79,24.75-8.52,35-11.08,19.62-4.88,33.9-5.62,43.67-2.26,14.71,5.09,25.3,14.42,31.47,27.75,1.47,3.3,2.74,6.52,3.8,9.64,3.07,9.09,4.18,17.52,3.31,25.06-.86,7.13-3.7,13.44-8.47,18.87,8.01.67,14.82,3.04,20.34,7.08,6.63,4.86,11.82,12.76,15.42,23.48.67,2,1.29,4.1,1.85,6.3,3.68,14.18,2.55,25.96-3.35,34.99-5.67,8.66-15.13,15.94-28.13,21.63-7.14,3.08-15.88,5.84-25.99,8.22-7.84,1.84-16.63,3.49-26.11,4.91l-3.28.49ZM106.03,142.78c12.75,32.93,25.44,67.02,37.75,101.38,6.85,19.12,13.77,38.86,20.59,58.75,8.02-1.27,15.48-2.71,22.2-4.28,9.65-2.26,17.94-4.88,24.63-7.76,11.54-5.05,19.83-11.33,24.64-18.68,4.62-7.08,5.4-16.71,2.31-28.65-.52-2.01-1.08-3.93-1.69-5.75-3.07-9.13-7.31-15.73-12.59-19.6-6.29-4.6-15-6.46-25.93-5.5l-15.19,1.33,12.61-8.58c8.05-5.48,12.46-12.21,13.47-20.55.73-6.34-.25-13.6-2.94-21.57-.98-2.88-2.16-5.88-3.5-8.9-5.28-11.4-14.06-19.11-26.83-23.52-8.15-2.81-21.32-1.99-39.14,2.46-8.96,2.24-19.17,5.41-30.37,9.44ZM180.81,275.98l-15.86-45.2,3.92-1.24c3.36-1.06,6.52-1.95,9.49-2.66,13.55-3.25,22.98-2.82,28.82,1.32,3.62,2.62,6.17,6.07,7.61,10.28,1.4,4.06,1.75,8.88,1.06,14.3-1.39,10.41-10.26,17.61-26.37,21.42-1.67.4-3.44.78-5.3,1.13l-3.37.65ZM175.19,235.95l10.84,30.89c.55-.12,1.09-.24,1.61-.37,12.58-2.97,19.41-7.92,20.32-14.71.54-4.18.3-7.79-.7-10.69-.91-2.66-2.45-4.75-4.72-6.39-2.59-1.83-8.6-3.35-22.33-.05-1.61.39-3.28.83-5.02,1.33ZM157.9,214.84l-21.14-57.25,3.77-1.36c3.1-1.12,6-2.02,8.64-2.67,12.92-3.19,22.57-1.12,28.69,6.13,3.22,3.84,5.61,8,7.11,12.36,1.79,5.21,2.44,10.83,1.94,16.72-.93,11.77-9.48,20.19-25.43,24.99l-3.58,1.08ZM147.02,162.42l15.71,42.54c10.34-3.81,15.66-9.34,16.25-16.84.41-4.8-.11-9.33-1.53-13.48-1.18-3.44-3.09-6.75-5.68-9.83-4.05-4.8-10.82-5.96-20.7-3.53-1.27.31-2.62.69-4.04,1.14Z"/><path class="cls-3" d="M264.45,282.61c-2.86-68.46-5.95-128.04-9.26-177.95l46.11-9.49c24.1,48.24,51.05,102.06,80.66,161.05l-29.26,11.45-20.89-42.17-37.46,6.76,2.42,48.91-32.32,1.43ZM322.4,192.61c-8.6-16.35-20.81-35.73-36.72-58.18-2.11,21.76-2.88,43.83-2.33,66.18l39.05-7.99Z"/><path class="cls-2" d="M260.64,286.76l-.17-3.98c-2.87-68.7-5.98-128.54-9.25-177.85l-.23-3.46,52.5-10.81,1.37,2.74c24.1,48.24,51.05,102.06,80.65,161.05l1.96,3.9-36.72,14.37-21.18-42.75-31.07,5.6,2.44,49.42-40.3,1.78ZM259.39,107.86c3.13,47.74,6.11,105.09,8.87,170.6l24.34-1.08-2.4-48.41,43.84-7.9,20.6,41.58,21.81-8.53c-28.28-56.36-54.12-107.96-77.34-154.43l-39.72,8.18ZM279.5,205.45l-.12-4.75c-.56-22.46.23-44.89,2.35-66.66l1.03-10.63,6.17,8.72c15.89,22.44,28.34,42.17,36.99,58.63l2.46,4.69-48.89,10.01ZM288.7,145.69c-1.25,16.46-1.74,33.24-1.47,50.06l29.13-5.96c-7.07-12.88-16.34-27.66-27.67-44.09Z"/><path class="cls-3" d="M381.89,199.19l36.28-7.06c.38,5.01.92,9.51,1.63,13.48,3.18,17.97,9.39,26.32,18.65,25.16l.49-.06c11.19-1.72,15.84-8.18,13.93-19.42l-.18-1.07c-2.46-11.96-15.2-22.43-38.27-31.38-22.48-8.65-36.13-26.02-40.96-52.3-.15-.82-.26-1.65-.33-2.48-4.53-27.93,8.77-44.36,40.04-49.04l1.02-.13c28.41-3.78,45.59,12.25,51.42,47.7.46,2.8.86,5.77,1.21,8.92l-32.51,6.11c-.3-3.73-.71-7.15-1.25-10.27-2.53-14.76-7.46-21.69-14.78-20.73-8.83,1.16-12.88,6.22-12.16,15.16.13,1.25.31,2.48.53,3.72,1.29,7.3,4.7,13.81,10.23,19.52,6.35,6.59,16.23,12.08,29.63,16.49,13.39,4.4,23.39,11.5,30.01,21.26,4.71,7.02,7.75,14.72,9.11,23.09.52,3.18.8,6.47.85,9.86.05,12.17-3.6,22.68-10.92,31.54-7.3,8.82-18.1,14.46-32.41,16.93-.97.2-1.94.36-2.91.48-13.1,1.62-24.86-1.61-35.3-9.68-10.08-7.75-17.29-23.3-21.63-46.81-.53-2.86-1-5.85-1.41-8.97Z"/><path class="cls-2" d="M433.81,269.03c-11.41,0-21.92-3.66-31.31-10.91-10.99-8.44-18.55-24.55-23.11-49.23-.54-2.92-1.02-5.98-1.44-9.17l-.49-3.71,44.34-8.63.34,4.46c.37,4.83.89,9.24,1.58,13.09,2.72,15.37,7.49,22.74,14.25,21.91,4.85-.73,7.96-2.25,9.62-4.56,1.68-2.32,2.14-5.79,1.37-10.3l-.18-1.08c-2.14-10.37-14.18-19.95-35.79-28.34-23.75-9.14-38.37-27.75-43.44-55.29-.17-.95-.3-1.91-.38-2.88-2.28-13.96-.16-25.7,6.33-34.59,7.15-9.8,19.63-16.09,37.09-18.71l1.08-.14c21.21-2.83,48.1,3.73,55.87,51,.47,2.87.88,5.91,1.23,9.13l.4,3.66-40.48,7.6-.35-4.41c-.29-3.61-.69-6.95-1.2-9.92-1.44-8.4-4.42-18.21-10.34-17.46-6.74.89-9.27,4.05-8.72,10.89.12,1.05.28,2.19.48,3.34,1.16,6.57,4.16,12.28,9.17,17.45,5.87,6.09,15.3,11.3,28.02,15.48,14.17,4.66,24.95,12.33,32.06,22.8,5.02,7.48,8.29,15.78,9.75,24.68.55,3.36.85,6.87.9,10.45.05,13.1-3.93,24.57-11.83,34.13-7.88,9.52-19.58,15.68-34.79,18.32-.95.2-2.03.37-3.12.5-2.33.28-4.63.43-6.9.43ZM386.36,202.38c.26,1.73.55,3.42.85,5.06,4.13,22.35,10.91,37.28,20.15,44.38,9.67,7.47,20.27,10.35,32.39,8.88.88-.11,1.74-.25,2.6-.42,13.41-2.32,23.51-7.56,30.14-15.58,6.78-8.2,10.06-17.68,10.01-28.98-.04-3.14-.31-6.27-.79-9.24-1.27-7.76-4.12-15-8.49-21.51-6.08-8.96-15.49-15.6-27.95-19.69-13.96-4.59-24.48-10.49-31.25-17.51-6.06-6.26-9.86-13.52-11.29-21.59-.23-1.32-.42-2.65-.57-3.98-.91-11.19,4.63-18.09,15.6-19.53,9.81-1.28,16.27,6.79,19.22,24,.34,1.95.63,4.03.87,6.23l24.57-4.62c-.23-1.74-.47-3.42-.74-5.05-5.48-33.36-20.85-47.88-46.97-44.4l-1.02.13c-15.21,2.28-25.92,7.5-31.77,15.52-5.19,7.11-6.83,16.85-4.87,28.94.1,1.01.19,1.71.32,2.41,4.59,24.98,17.18,41.11,38.48,49.31,24.63,9.56,37.96,20.78,40.74,34.3l.21,1.21c1.14,6.69.21,12.17-2.76,16.29-2.96,4.1-7.83,6.7-14.49,7.72l-.61.08c-11.67,1.46-19.46-8.1-23.06-28.42-.51-2.88-.94-6.04-1.28-9.43l-28.24,5.49Z"/><path class="cls-3" d="M525.63,74.54l7.04,78.15c11.64-27.65,22.57-53.25,32.75-76.74l36.4-.87c-10.33,23.08-24.55,51.39-42.54,84.71,12.34,19.96,30.5,47.12,54.3,81.24l-39.68,3.39c-9.33-17.88-22.86-40.42-40.69-67.75l6.22,64.08-29.67,2.66c-3.8-42.33-9.12-96.64-16.06-163.75l31.92-5.12Z"/><path class="cls-2" d="M571.6,248.61l-1.23-2.35c-7.64-14.63-18.25-32.63-31.62-53.64l5.03,51.74-37.62,3.37-.36-3.96c-3.8-42.36-9.2-97.43-16.05-163.7l-.39-3.74,39.84-6.4,5.99,66.52c9.35-22.1,18.26-42.93,26.57-62.09l1.01-2.33,45.24-1.08-2.58,5.75c-10.08,22.53-24.07,50.43-41.58,82.95,12.19,19.58,30,46.18,52.96,79.1l3.94,5.65-49.18,4.2ZM531.23,166.35l5.31,8.14c16.99,26.04,30.32,48.14,39.65,65.73l30.19-2.57c-21.91-31.54-38.88-57.01-50.48-75.77l-1.21-1.96,1.09-2.02c16.45-30.48,29.82-56.91,39.8-78.69l-27.52.66c-9.83,22.71-20.5,47.72-31.72,74.36l-5.11,12.13ZM498.05,82.99c6.46,62.6,11.61,115.07,15.32,156.1l21.72-1.95-7.4-76.23,2.01,3.08-7.65-84.86-24,3.85Z"/><path class="cls-3" d="M707.33,62.55l.32,35.99-51.31-.42.81,41.14,45.68-2.62,1.49,33.5-40.53,1.18.57,30.95,52.72-1.49.24,34.19-87.21,1.18c.34-22.46.22-45.29-.37-68.5-.84-32.55-2.59-65.83-5.3-99.85,19.62-1.4,47.24-3.16,82.9-5.26Z"/><path class="cls-2" d="M626.06,240.19l.06-4.09c.34-22.36.22-45.35-.37-68.34-.83-32.44-2.61-65.97-5.29-99.64l-.32-4,4-.29c19.61-1.4,47.52-3.17,82.95-5.26l4.17-.25.39,44.22-51.26-.42.65,32.93,45.58-2.62,1.84,41.56-40.63,1.18.42,23,52.77-1.49.29,42.2-95.25,1.29ZM628.71,71.49c2.51,32.47,4.2,64.76,5,96.07.56,21.69.7,43.39.43,64.57l79.17-1.07-.18-26.17-52.68,1.49-.71-38.91,40.43-1.18-1.13-25.44-45.78,2.63-.97-49.37,51.36.42-.24-27.76c-31.12,1.84-56.2,3.43-74.68,4.72Z"/><path class="cls-3" d="M742.12,94.95l1.56-33.65c12.84.52,25.56.86,38.16,1.03,19.62.26,38.89.13,57.81-.39l-1.21,35.89-32.91-.46c-3.56,59.48-5.68,105.61-6.43,139.15l-35.77,1.07c4.88-57.26,8.78-105.03,11.65-142.68l-32.86.05Z"/><path class="cls-2" d="M758.99,241.69l.38-4.44c4.74-55.61,8.54-102.12,11.32-138.36l-32.73.05,1.93-41.77,3.95.16c12.71.51,25.52.85,38.06,1.02,19.49.26,38.89.13,57.65-.39l4.23-.12-1.49,44.02-33.01-.46c-3.38,56.96-5.46,102.43-6.19,135.2l-.08,3.78-44.01,1.31ZM779.27,90.92l-.33,4.29c-2.74,35.9-6.53,82.41-11.28,138.27l27.54-.82c.82-33.3,2.95-78.86,6.34-135.52l.23-3.79,32.81.46.94-27.77c-17.55.43-35.6.53-53.74.28-11.31-.15-22.84-.44-34.32-.87l-1.18,25.53,32.99-.05Z"/><path class="cls-3" d="M874.69,239.16c-3.35-55.01-8.4-114.01-15.22-177.26l38.83-1.48,3.97,138.79c17.61-46.42,32.87-89.34,45.66-128.54l35.75,6.65c-29.43,75.27-50.67,129.25-64.28,163.39l-44.7-1.55Z"/><path class="cls-2" d="M922.05,244.78l-51.11-1.77-.22-3.61c-3.34-54.98-8.46-114.56-15.21-177.07l-.46-4.24,47.1-1.79,3.51,122.59c14.63-39.21,27.54-75.95,38.48-109.45l1.08-3.32,43.91,8.16-1.75,4.48c-28.85,73.79-50.48,128.77-64.29,163.42l-1.03,2.6ZM878.44,235.31l38.29,1.33c13.55-34.03,34.21-86.57,61.48-156.29l-27.6-5.13c-12.5,38.09-27.51,80.26-44.63,125.41l-7.12,18.77-4.43-154.84-30.55,1.16c6.39,59.73,11.29,116.74,14.56,169.6Z"/><path class="cls-3" d="M1004.37,245.72l-31.89-.42c11.36-59.04,21.26-115.98,29.63-170.62l37.86.65c-12.42,57.29-24.27,114.09-35.59,170.38Z"/><path class="cls-2" d="M1007.61,249.74l-39.95-.53.9-4.67c11.37-59.1,21.33-116.45,29.6-170.47l.53-3.43,46.18.8-1.03,4.73c-12.25,56.54-24.22,113.84-35.58,170.33l-.65,3.24ZM977.27,241.38l23.84.32c10.85-53.9,22.26-108.52,33.93-162.47l-29.54-.51c-7.97,51.68-17.46,106.36-28.23,162.66Z"/><path class="cls-3" d="M1106.63,77.09c-12.65,43.79-22.74,80.74-30.4,111.16-3.02,11.99-5.66,23.01-7.94,33.08l56.82,5.01-9.39,38.9-89.6-10.24c2.63-10.41,5.22-20.84,7.77-31.29,11.86-48.54,22.81-98.04,32.81-148.52l39.94,1.9Z"/><path class="cls-2" d="M1118.76,269.59l-97.61-11.16,1.11-4.41c2.63-10.4,5.22-20.82,7.76-31.26,11.85-48.51,22.88-98.42,32.77-148.35l.67-3.36,48.39,2.3-1.4,4.84c-12.49,43.25-22.7,80.6-30.37,111.03-2.55,10.14-4.87,19.72-6.9,28.54l56.87,5.01-11.3,46.81ZM1031.09,251.55l81.59,9.33,7.48-30.99-56.75-5,1-4.44c2.28-10.08,4.96-21.24,7.96-33.17,7.4-29.37,17.16-65.17,29.04-106.45l-31.48-1.5c-9.74,48.92-20.56,97.8-32.18,145.32-2.19,8.99-4.42,17.95-6.67,26.9Z"/><path class="cls-3" d="M1230.73,96.77c-15.98,43.12-28.89,79.54-38.87,109.56-3.93,11.83-7.42,22.71-10.46,32.65l56.09,7.66-12.35,38.38-88.32-14.39c3.43-10.28,6.82-20.58,10.17-30.89,15.57-47.93,30.31-96.86,44.18-146.81l39.57,3.83Z"/><path class="cls-2" d="M1227.87,289.5l-96.31-15.69,1.48-4.43c3.42-10.27,6.81-20.56,10.16-30.86,15.55-47.85,30.4-97.19,44.13-146.65l.89-3.22,48.03,4.66-1.8,4.84c-15.77,42.55-28.83,79.37-38.83,109.43-3.31,9.95-6.35,19.38-9.05,28.09l56.15,7.67-14.86,46.16ZM1142.06,267.46l80.33,13.09,9.85-30.61-56.02-7.65,1.37-4.47c3.06-9.99,6.59-21.01,10.49-32.74,9.65-29,22.13-64.25,37.13-104.84l-31.11-3.01c-13.52,48.49-28.09,96.84-43.34,143.76-2.87,8.84-5.77,17.67-8.7,26.48Z"/><path class="cls-3" d="M1390.73,140.39l-14.66,34.41-47.99-13.66-16.37,39.57,44.02,9.2-12.53,32.34-38.6-9.19-12.35,29.74,50.19,11.9-13.97,32.65-82.71-20.8c9.69-21.43,19.1-43.33,28.22-65.72,12.79-31.4,25.01-63.74,36.65-97.05,19.09,3.79,45.79,9.32,80.09,16.59Z"/><path class="cls-2" d="M1330.8,312.05l-90.61-22.79,1.96-4.33c9.66-21.35,19.13-43.42,28.16-65.58,12.77-31.37,25.08-63.96,36.58-96.86l1.14-3.26,3.39.67c19.06,3.78,46.02,9.37,80.14,16.6l4.73,1-17.93,42.09-47.96-13.65-13.19,31.86,43.92,9.18-15.47,39.95-38.68-9.21-9.26,22.29,50.24,11.91-17.16,40.12ZM1251.35,283.87l74.8,18.81,10.78-25.19-50.14-11.89,15.44-37.18,38.51,9.17,9.58-24.73-44.13-9.23,19.56-47.27,48.03,13.67,11.39-26.74c-29.92-6.33-54.07-11.34-71.92-14.9-11.22,31.92-23.18,63.52-35.58,93.97-8.46,20.76-17.3,41.43-26.32,61.52Z"/><path class="cls-3" d="M1500,110.69l-68.44-19.04C1212.79,30.84,983.49,0,750.01,0S287.22,30.84,68.45,91.65L0,110.68v54.2l113.92,284.71,68.45-19.03c182.13-50.63,373.11-76.31,567.64-76.31s385.51,25.67,567.64,76.31l68.46,19.03,113.89-284.71v-54.2Z"/><path class="cls-3" d="M1500,110.69l-68.44-19.04C1212.79,30.84,983.49,0,750.01,0S287.22,30.84,68.45,91.65L0,110.68v54.2l113.92,284.71,68.45-19.03c182.13-50.63,373.11-76.31,567.64-76.31s385.51,25.67,567.64,76.31l68.46,19.03,113.89-284.71v-54.2Z"/><path class="cls-3" d="M1500,110.69l-68.44-19.04C1212.79,30.84,983.49,0,750.01,0S287.22,30.84,68.45,91.65L0,110.68v54.2l113.92,284.71,68.45-19.03c182.13-50.63,373.11-76.31,567.64-76.31s385.51,25.67,567.64,76.31l68.46,19.03,113.89-284.71v-54.2Z"/><path class="cls-1" d="M1328.66,356.8c-185.66-51.62-380.35-77.79-578.66-77.79s-393,26.17-578.66,77.79l-37.04,10.3L36.68,123.12l42.79-11.9C294.69,51.39,520.29,21.05,750.01,21.05s455.32,30.33,670.52,90.16l42.79,11.9-97.61,243.98-37.05-10.3Z"/><path class="cls-2" d="M750.01,23.84c229.47,0,454.82,30.3,669.77,90.06l39.79,11.07-95.53,238.78-34.64-9.63c-185.91-51.69-380.85-77.89-579.41-77.89s-393.49,26.21-579.41,77.89l-34.64,9.63L40.42,124.96l39.79-11.07C295.19,54.14,520.54,23.84,750.01,23.84M750.01,18.27c-229.96,0-455.81,30.36-671.29,90.26l-45.78,12.73,99.7,249.19,39.44-10.97c185.43-51.55,379.87-77.69,577.91-77.69s392.49,26.14,577.91,77.69l39.45,10.97,99.69-249.19-45.78-12.73c-215.46-59.9-441.31-90.26-671.26-90.26h0Z"/><path class="cls-3" d="M170.75,312.72c-7.07-20.76-14.24-41.33-21.51-61.71-12.69-35.59-25.67-70.55-38.93-104.84,12.91-4.76,24.44-8.4,34.58-10.92,18.66-4.63,32.47-5.42,41.38-2.35,13.7,4.74,23.39,13.28,29.08,25.6,1.41,3.16,2.61,6.24,3.62,9.23,2.88,8.56,3.9,16.32,3.07,23.27-1.16,9.45-6.24,17.22-15.21,23.31,11.96-1.04,21.5,1.04,28.6,6.24,5.97,4.39,10.62,11.56,13.95,21.5.64,1.91,1.22,3.91,1.75,6,3.38,13.12,2.41,23.7-2.89,31.76-5.28,8.03-14.09,14.73-26.41,20.11-6.96,3-15.39,5.65-25.3,7.97-7.75,1.81-16.34,3.42-25.78,4.83ZM151.26,165.66l18.34,49.88c14.28-4.29,21.83-11.43,22.64-21.47.47-5.34-.1-10.36-1.71-15.05-1.34-3.92-3.46-7.61-6.36-11.07-5.07-6.01-13.3-7.62-24.67-4.83-2.53.62-5.27,1.47-8.24,2.54ZM179.28,238.87l13.28,38.01c1.8-.35,3.52-.71,5.14-1.09,14.4-3.4,22.19-9.4,23.36-18.01.63-4.82.35-8.98-.85-12.48-1.17-3.43-3.21-6.2-6.13-8.31-4.8-3.4-13.33-3.63-25.57-.7-2.88.69-5.96,1.55-9.22,2.58Z"/><path class="cls-3" d="M273.5,288.04c-2.72-68.31-5.68-127.75-8.89-177.55l46.09-9.46c23.98,48.14,50.8,101.84,80.27,160.71l-29.26,11.42-20.79-42.08-37.44,6.74,2.32,48.8-32.3,1.43ZM331.58,198.25c-8.56-16.32-20.73-35.65-36.57-58.06-2.15,21.71-2.97,43.73-2.46,66.03l39.03-7.97Z"/><path class="cls-3" d="M391.02,204.83l36.27-7.04c.37,5,.9,9.49,1.6,13.45,3.14,17.93,9.33,26.26,18.59,25.11l.49-.06c11.19-1.71,15.84-8.16,13.95-19.37l-.18-1.07c-2.43-11.93-15.15-22.38-38.18-31.32-22.44-8.63-36.05-25.96-40.83-52.19-.15-.82-.26-1.64-.32-2.48-4.47-27.87,8.86-44.26,40.11-48.92l1.01-.13c28.39-3.77,45.53,12.23,51.28,47.6.45,2.79.85,5.76,1.19,8.9l-32.5,6.09c-.29-3.72-.7-7.14-1.23-10.25-2.5-14.72-7.41-21.64-14.73-20.68-8.83,1.16-12.88,6.21-12.18,15.12.13,1.24.3,2.48.52,3.71,1.28,7.29,4.67,13.78,10.19,19.48,6.33,6.58,16.19,12.06,29.57,16.46,13.37,4.4,23.34,11.48,29.94,21.21,4.69,7.01,7.71,14.69,9.06,23.04.51,3.17.79,6.45.83,9.84.03,12.14-3.64,22.63-10.98,31.46-7.31,8.8-18.11,14.42-32.41,16.89-.97.2-1.93.35-2.91.47-13.1,1.61-24.83-1.61-35.25-9.66-10.06-7.73-17.23-23.25-21.52-46.71-.52-2.85-.98-5.83-1.39-8.95Z"/><path class="cls-3" d="M534.89,80.48l6.88,77.97c11.69-27.58,22.65-53.13,32.87-76.56l36.37-.86c-10.37,23.03-24.63,51.27-42.67,84.51,12.29,19.92,30.38,47.02,54.1,81.07l-39.65,3.37c-9.29-17.84-22.76-40.33-40.52-67.6l6.09,63.94-29.65,2.65c-3.71-42.23-8.92-96.42-15.72-163.39l31.91-5.11Z"/><path class="cls-3" d="M716.46,68.55l.25,35.91-51.27-.42.73,41.05,45.64-2.61,1.42,33.42-40.5,1.17.51,30.88,52.69-1.48.17,34.11-87.14,1.16c.39-22.41.31-45.19-.24-68.35-.77-32.48-2.47-65.68-5.1-99.63,19.6-1.4,47.2-3.14,82.84-5.23Z"/><path class="cls-3" d="M751.16,100.88l1.62-33.57c12.83.52,25.54.86,38.13,1.03,19.61.26,38.86.14,57.76-.38l-1.28,35.81-32.88-.47c-3.67,59.34-5.88,105.37-6.68,138.83l-35.75,1.06c4.98-57.13,8.98-104.79,11.92-142.36l-32.84.04Z"/><path class="cls-3" d="M883.35,244.78c-3.24-54.89-8.18-113.76-14.88-176.86l38.8-1.47,3.71,138.47c17.68-46.31,33.01-89.14,45.86-128.24l35.71,6.64c-29.55,75.1-50.87,128.95-64.53,163.02l-44.66-1.55Z"/><path class="cls-3" d="M1012.91,251.34l-31.87-.42c11.46-58.9,21.46-115.72,29.92-170.23l37.82.66c-12.51,57.16-24.46,113.82-35.88,169.99Z"/><path class="cls-3" d="M1115.4,83.11c-12.72,43.69-22.87,80.55-30.58,110.9-3.04,11.97-5.7,22.96-7.99,33l56.76,5.01-9.46,38.81-89.51-10.23c2.65-10.39,5.26-20.79,7.82-31.22,11.94-48.43,22.97-97.81,33.05-148.18l39.9,1.9Z"/><path class="cls-3" d="M1239.36,102.76c-16.04,43.02-29.01,79.35-39.04,109.3-3.95,11.81-7.45,22.66-10.51,32.58l56.03,7.65-12.41,38.3-88.22-14.37c3.44-10.26,6.85-20.53,10.22-30.82,15.65-47.82,30.46-96.64,44.41-146.47l39.53,3.83Z"/><path class="cls-3" d="M1399.15,146.3l-14.7,34.33-47.93-13.63-16.43,39.47,43.97,9.19-12.57,32.27-38.55-9.17-12.39,29.67,50.13,11.88-14.02,32.58-82.6-20.76c9.73-21.38,19.16-43.23,28.32-65.57,12.83-31.33,25.1-63.6,36.79-96.83,19.06,3.78,45.74,9.31,79.99,16.56Z"/><path class="cls-3" d="M158.48,310.56c-7.12-20.81-14.34-41.42-21.65-61.84-12.77-35.66-25.83-70.7-39.18-105.07,12.91-4.77,24.44-8.42,34.58-10.95,18.66-4.65,32.48-5.43,41.41-2.36,13.72,4.74,23.44,13.31,29.16,25.66,1.41,3.17,2.62,6.25,3.64,9.25,2.9,8.58,3.93,16.35,3.12,23.32-1.15,9.47-6.21,17.26-15.17,23.36,11.96-1.05,21.52,1.04,28.64,6.25,5.98,4.39,10.65,11.58,14,21.54.64,1.91,1.23,3.91,1.77,6.01,3.41,13.15,2.46,23.75-2.82,31.83-5.26,8.05-14.07,14.77-26.39,20.16-6.96,3-15.39,5.66-25.3,7.99-7.75,1.82-16.35,3.43-25.79,4.85ZM138.67,163.17l18.46,49.99c14.28-4.3,21.82-11.46,22.61-21.52.46-5.35-.12-10.38-1.74-15.09-1.35-3.92-3.48-7.62-6.39-11.09-5.08-6.02-13.32-7.64-24.7-4.83-2.53.62-5.27,1.47-8.24,2.55ZM166.86,236.54l13.36,38.09c1.8-.35,3.52-.71,5.14-1.1,14.4-3.41,22.19-9.42,23.34-18.05.62-4.83.33-9-.88-12.51-1.18-3.43-3.23-6.21-6.15-8.33-4.81-3.41-13.35-3.64-25.59-.7-2.88.69-5.96,1.56-9.22,2.59Z"/><path class="cls-2" d="M155.79,314.98l-1.07-3.14c-7.19-20.99-14.46-41.77-21.63-61.78-12.75-35.58-25.91-70.9-39.14-104.98l-1.46-3.77,3.79-1.4c12.99-4.8,24.77-8.53,35-11.08,19.62-4.89,33.91-5.62,43.67-2.26,14.71,5.09,25.3,14.42,31.47,27.75,1.48,3.32,2.75,6.55,3.8,9.65,3.07,9.09,4.18,17.52,3.31,25.05-.86,7.13-3.7,13.44-8.48,18.87,8.01.67,14.82,3.04,20.34,7.08,6.63,4.87,11.82,12.77,15.42,23.49.67,2,1.29,4.09,1.85,6.29,3.68,14.19,2.55,25.96-3.35,34.99-5.67,8.67-15.13,15.95-28.13,21.63-7.15,3.08-15.89,5.84-25.99,8.21-7.78,1.83-16.57,3.48-26.11,4.91l-3.28.49ZM102.82,145.99c12.76,32.97,25.45,67.05,37.75,101.39,6.82,19.04,13.74,38.79,20.59,58.74,8.07-1.27,15.52-2.71,22.2-4.28,9.65-2.26,17.93-4.87,24.63-7.76,11.54-5.04,19.83-11.33,24.64-18.69,4.62-7.07,5.4-16.71,2.31-28.65-.52-2.01-1.08-3.92-1.69-5.74-3.07-9.13-7.3-15.73-12.58-19.61-6.29-4.6-15-6.46-25.94-5.5l-15.18,1.33,12.6-8.58c8.05-5.48,12.45-12.21,13.46-20.55.73-6.34-.25-13.6-2.94-21.57-.97-2.86-2.15-5.86-3.5-8.9-5.28-11.4-14.06-19.11-26.82-23.52-8.15-2.81-21.32-1.98-39.15,2.46-8.95,2.23-19.15,5.4-30.37,9.44ZM177.61,279.19l-15.86-45.19,3.91-1.25c3.3-1.05,6.49-1.94,9.5-2.66,13.54-3.25,22.97-2.82,28.82,1.32,3.62,2.62,6.17,6.07,7.61,10.28,1.4,4.07,1.75,8.88,1.06,14.29-1.39,10.41-10.26,17.61-26.37,21.42-1.67.4-3.44.78-5.31,1.13l-3.37.65ZM171.99,239.15l10.84,30.89c.55-.12,1.09-.24,1.61-.37,12.58-2.98,19.41-7.93,20.32-14.71.54-4.18.3-7.79-.69-10.69-.91-2.66-2.46-4.75-4.72-6.39-2.58-1.84-8.59-3.36-22.33-.05-1.61.39-3.29.82-5.02,1.32ZM154.69,218.04l-21.14-57.25,3.77-1.36c3.09-1.12,6-2.02,8.64-2.67,12.93-3.18,22.57-1.12,28.69,6.13,3.22,3.84,5.61,8,7.11,12.36,1.79,5.2,2.44,10.83,1.94,16.72-.93,11.77-9.48,20.19-25.43,24.99l-3.58,1.08ZM143.82,165.63l15.71,42.54c10.34-3.81,15.66-9.34,16.25-16.84.41-4.81-.1-9.33-1.53-13.48-1.18-3.45-3.09-6.75-5.68-9.83-4.06-4.81-10.82-5.96-20.7-3.53-1.27.32-2.62.69-4.04,1.14Z"/><path class="cls-3" d="M261.25,285.81c-2.86-68.46-5.95-128.04-9.26-177.95l46.11-9.49c24.1,48.24,51.05,102.06,80.66,161.05l-29.26,11.45-20.89-42.17-37.46,6.76,2.42,48.91-32.32,1.43ZM319.2,195.81c-8.6-16.35-20.81-35.73-36.72-58.18-2.11,21.76-2.88,43.83-2.33,66.18l39.05-7.99Z"/><path class="cls-2" d="M257.44,289.96l-.17-3.98c-2.87-68.66-5.98-128.5-9.25-177.85l-.23-3.46,52.5-10.81,1.37,2.74c24.1,48.24,51.05,102.06,80.65,161.05l1.96,3.9-36.72,14.37-21.18-42.75-31.07,5.61,2.44,49.41-40.3,1.78ZM256.19,111.06c3.13,47.78,6.11,105.13,8.87,170.6l24.34-1.08-2.4-48.4,43.84-7.91,20.6,41.58,21.81-8.53c-28.28-56.36-54.12-107.96-77.34-154.43l-39.72,8.18ZM276.29,208.66l-.12-4.75c-.56-22.46.23-44.89,2.35-66.66l1.03-10.63,6.17,8.72c15.89,22.44,28.34,42.17,36.99,58.63l2.46,4.69-48.89,10.01ZM285.5,148.89c-1.25,16.46-1.74,33.24-1.47,50.06l29.13-5.96c-7.07-12.88-16.34-27.66-27.67-44.09Z"/><path class="cls-3" d="M378.69,202.4l36.28-7.06c.38,5.01.92,9.51,1.63,13.48,3.18,17.97,9.39,26.32,18.65,25.16l.49-.06c11.19-1.72,15.84-8.18,13.93-19.42l-.18-1.07c-2.46-11.96-15.2-22.43-38.27-31.38-22.48-8.65-36.13-26.02-40.96-52.3-.15-.82-.26-1.65-.33-2.48-4.53-27.93,8.77-44.36,40.04-49.04l1.02-.13c28.41-3.78,45.59,12.25,51.42,47.7.46,2.8.86,5.77,1.21,8.92l-32.51,6.11c-.3-3.73-.71-7.15-1.25-10.27-2.53-14.76-7.46-21.69-14.78-20.73-8.83,1.16-12.88,6.22-12.16,15.16.13,1.25.31,2.48.53,3.72,1.29,7.3,4.7,13.81,10.23,19.52,6.35,6.59,16.23,12.08,29.63,16.49,13.39,4.4,23.39,11.5,30.01,21.26,4.71,7.02,7.75,14.72,9.11,23.09.52,3.18.8,6.47.85,9.86.05,12.17-3.6,22.68-10.92,31.54-7.3,8.82-18.1,14.46-32.41,16.93-.97.2-1.94.36-2.91.48-13.1,1.62-24.86-1.61-35.3-9.68-10.08-7.75-17.29-23.3-21.63-46.81-.53-2.86-1-5.85-1.41-8.97Z"/><path class="cls-2" d="M430.62,272.23c-11.43,0-21.94-3.66-31.33-10.91-10.99-8.44-18.55-24.55-23.11-49.23-.54-2.93-1.02-5.98-1.44-9.18l-.48-3.7,44.34-8.62.34,4.45c.37,4.86.9,9.26,1.58,13.09,2.72,15.37,7.45,22.7,14.24,21.91,4.85-.73,7.96-2.25,9.62-4.56,1.68-2.32,2.14-5.79,1.37-10.3l-.18-1.08c-2.14-10.37-14.18-19.95-35.79-28.34-23.76-9.14-38.37-27.75-43.44-55.29-.18-.96-.3-1.92-.38-2.89-2.28-13.95-.16-25.69,6.33-34.59,7.15-9.8,19.63-16.09,37.09-18.71l1.08-.14c21.21-2.83,48.1,3.73,55.86,51,.47,2.87.88,5.91,1.24,9.13l.4,3.66-40.48,7.61-.35-4.41c-.29-3.6-.69-6.94-1.2-9.92-1.44-8.4-4.51-18.25-10.35-17.45-6.74.89-9.26,4.05-8.71,10.89.11,1.05.28,2.2.48,3.34,1.16,6.57,4.16,12.28,9.18,17.45,5.87,6.09,15.29,11.3,28.01,15.48,14.17,4.66,24.95,12.34,32.06,22.8,5.02,7.48,8.29,15.77,9.75,24.68.55,3.38.85,6.89.9,10.45.06,13.09-3.93,24.56-11.83,34.12-7.88,9.52-19.59,15.69-34.8,18.32-.94.19-2.01.37-3.09.5-2.33.29-4.63.43-6.9.43ZM383.15,205.58c.26,1.73.55,3.42.85,5.06,4.13,22.35,10.91,37.28,20.15,44.38,9.67,7.47,20.26,10.36,32.39,8.89.86-.11,1.73-.25,2.6-.43,13.41-2.32,23.51-7.55,30.14-15.58,6.78-8.2,10.06-17.68,10.01-28.98-.04-3.13-.31-6.25-.79-9.24-1.27-7.77-4.12-15.01-8.49-21.51-6.08-8.96-15.49-15.6-27.95-19.7-13.96-4.59-24.48-10.48-31.25-17.51-6.06-6.26-9.86-13.52-11.29-21.59-.24-1.32-.42-2.65-.57-3.99-.91-11.18,4.64-18.08,15.6-19.52,9.79-1.27,16.28,6.79,19.22,24,.33,1.95.63,4.03.87,6.23l24.57-4.62c-.23-1.74-.47-3.42-.74-5.05-5.48-33.36-20.85-47.88-46.96-44.4l-1.02.13c-15.21,2.28-25.92,7.5-31.77,15.52-5.19,7.11-6.83,16.85-4.87,28.94.09,1.02.19,1.72.32,2.41,4.59,24.98,17.18,41.11,38.48,49.31,24.63,9.56,37.96,20.78,40.74,34.3l.21,1.21c1.14,6.69.21,12.17-2.76,16.29-2.96,4.1-7.84,6.7-14.49,7.71l-.61.08c-11.71,1.54-19.46-8.09-23.06-28.41-.51-2.87-.94-6.03-1.28-9.43l-28.24,5.49Z"/><path class="cls-3" d="M522.43,77.74l7.04,78.15c11.64-27.65,22.57-53.25,32.75-76.74l36.4-.87c-10.33,23.08-24.55,51.39-42.54,84.71,12.34,19.96,30.5,47.12,54.3,81.24l-39.68,3.39c-9.33-17.88-22.86-40.42-40.69-67.75l6.22,64.08-29.67,2.66c-3.8-42.33-9.12-96.64-16.06-163.75l31.92-5.12Z"/><path class="cls-2" d="M568.39,251.82l-1.23-2.35c-7.64-14.63-18.25-32.63-31.62-53.64l5.03,51.74-37.62,3.37-.36-3.96c-3.8-42.36-9.2-97.43-16.05-163.7l-.39-3.74,39.84-6.4,6,66.52c9.33-22.05,18.24-42.88,26.57-62.09l1.01-2.33,45.24-1.08-2.58,5.75c-10.09,22.54-24.07,50.43-41.58,82.94,12.18,19.57,29.99,46.17,52.96,79.11l3.94,5.65-49.18,4.2ZM528.03,169.56l5.31,8.14c16.99,26.05,30.32,48.15,39.65,65.74l30.19-2.57c-21.92-31.55-38.89-57.02-50.48-75.78l-1.21-1.96,1.09-2.02c16.45-30.47,29.82-56.91,39.8-78.69l-27.52.66c-9.86,22.77-20.53,47.78-31.72,74.36l-5.11,12.13ZM494.85,86.2c6.46,62.6,11.61,115.08,15.32,156.1l21.72-1.95-7.41-76.24,2.01,3.09-7.65-84.86-24,3.85Z"/><path class="cls-3" d="M704.12,65.76l.32,35.99-51.31-.42.81,41.14,45.68-2.62,1.49,33.5-40.53,1.18.57,30.95,52.72-1.49.24,34.19-87.21,1.18c.34-22.46.22-45.29-.37-68.5-.84-32.55-2.59-65.83-5.3-99.85,19.62-1.4,47.24-3.16,82.9-5.26Z"/><path class="cls-2" d="M622.86,243.4l.06-4.09c.34-22.36.22-45.35-.37-68.33-.83-32.44-2.61-65.97-5.29-99.64l-.32-4,4-.29c19.61-1.4,47.51-3.17,82.95-5.26l4.17-.25.39,44.22-51.26-.42.65,32.93,45.57-2.62,1.84,41.56-40.63,1.18.42,23,52.77-1.49.29,42.21-95.25,1.28ZM625.5,74.7c2.51,32.47,4.19,64.76,5,96.07.56,21.69.7,43.39.43,64.57l79.17-1.07-.18-26.17-52.68,1.48-.71-38.9,40.43-1.18-1.13-25.44-45.77,2.63-.97-49.37,51.36.42-.24-27.76c-31.12,1.84-56.2,3.43-74.68,4.72Z"/><path class="cls-3" d="M738.91,98.16l1.56-33.65c12.84.52,25.56.86,38.16,1.03,19.62.26,38.89.13,57.81-.39l-1.21,35.89-32.91-.46c-3.56,59.48-5.68,105.61-6.43,139.15l-35.77,1.07c4.88-57.26,8.78-105.03,11.65-142.68l-32.86.05Z"/><path class="cls-2" d="M755.78,244.9l.38-4.44c4.73-55.52,8.54-102.03,11.32-138.36l-32.74.05,1.93-41.77,3.95.16c12.71.51,25.52.85,38.06,1.02,19.49.26,38.89.13,57.65-.39l4.23-.12-1.49,44.02-33.01-.47c-3.38,57.03-5.47,102.5-6.19,135.21l-.08,3.78-44.01,1.31ZM776.07,94.13l-.33,4.29c-2.74,36-6.54,82.49-11.28,138.27l27.54-.82c.82-33.24,2.95-78.8,6.34-135.52l.23-3.79,32.81.46.94-27.77c-17.54.43-35.6.53-53.74.28-11.31-.15-22.84-.44-34.32-.87l-1.18,25.53,32.99-.05Z"/><path class="cls-3" d="M871.48,242.37c-3.35-55.01-8.4-114.01-15.22-177.26l38.83-1.48,3.97,138.79c17.61-46.42,32.87-89.34,45.66-128.54l35.75,6.65c-29.43,75.27-50.67,129.25-64.28,163.39l-44.7-1.55Z"/><path class="cls-2" d="M918.84,247.99l-51.11-1.77-.22-3.61c-3.34-54.99-8.46-114.56-15.21-177.07l-.46-4.24,47.11-1.79,3.5,122.58c14.63-39.2,27.54-75.94,38.48-109.45l1.08-3.32,43.91,8.16-1.75,4.48c-29.05,74.28-50.68,129.26-64.29,163.42l-1.03,2.6ZM875.23,238.51l38.29,1.33c13.38-33.59,34.04-86.13,61.49-156.29l-27.6-5.13c-12.5,38.1-27.51,80.27-44.63,125.4l-7.12,18.77-4.43-154.84-30.56,1.16c6.39,59.72,11.28,116.74,14.56,169.59Z"/><path class="cls-3" d="M1001.16,248.92l-31.89-.42c11.36-59.04,21.26-115.98,29.63-170.62l37.86.65c-12.42,57.29-24.27,114.09-35.59,170.38Z"/><path class="cls-2" d="M1004.41,252.95l-39.95-.53.9-4.67c11.37-59.09,21.33-116.44,29.6-170.46l.53-3.43,46.17.8-1.03,4.73c-12.28,56.65-24.25,113.96-35.58,170.33l-.65,3.24ZM974.07,244.59l23.84.32c10.83-53.79,22.23-108.41,33.93-162.47l-29.54-.51c-7.97,51.69-17.46,106.37-28.23,162.66Z"/><path class="cls-3" d="M1103.43,80.3c-12.65,43.79-22.74,80.74-30.4,111.16-3.02,11.99-5.66,23.01-7.94,33.08l56.82,5.01-9.39,38.9-89.6-10.24c2.63-10.41,5.22-20.84,7.77-31.29,11.86-48.54,22.81-98.04,32.81-148.52l39.94,1.9Z"/><path class="cls-2" d="M1115.55,272.79l-97.61-11.16,1.11-4.41c2.63-10.4,5.22-20.83,7.76-31.26,11.84-48.46,22.87-98.37,32.77-148.35l.67-3.36,48.39,2.31-1.4,4.84c-12.5,43.31-22.72,80.66-30.37,111.02-2.55,10.14-4.87,19.72-6.9,28.54l56.87,5.02-11.3,46.81ZM1027.88,254.76l81.59,9.33,7.48-30.99-56.75-5,1-4.44c2.28-10.08,4.96-21.24,7.96-33.17,7.38-29.32,17.15-65.11,29.04-106.45l-31.48-1.5c-9.75,48.97-20.57,97.85-32.18,145.32-2.19,8.98-4.42,17.95-6.67,26.91Z"/><path class="cls-3" d="M1227.52,99.97c-15.98,43.12-28.89,79.54-38.87,109.56-3.93,11.83-7.42,22.71-10.46,32.65l56.09,7.66-12.35,38.38-88.32-14.39c3.43-10.28,6.82-20.58,10.17-30.89,15.57-47.93,30.31-96.86,44.18-146.81l39.57,3.83Z"/><path class="cls-2" d="M1224.67,292.71l-96.31-15.69,1.48-4.43c3.42-10.28,6.81-20.56,10.16-30.87,15.55-47.86,30.4-97.2,44.13-146.64l.89-3.22,48.03,4.66-1.8,4.84c-15.79,42.61-28.85,79.43-38.82,109.43-3.33,10.02-6.37,19.45-9.06,28.09l56.15,7.67-14.86,46.16ZM1138.86,270.67l80.33,13.09,9.85-30.61-56.02-7.65,1.37-4.47c3.03-9.89,6.55-20.9,10.49-32.75,9.62-28.94,22.11-64.19,37.12-104.84l-31.11-3.01c-13.51,48.48-28.09,96.83-43.33,143.76-2.87,8.84-5.77,17.67-8.71,26.49Z"/><path class="cls-3" d="M1387.53,143.6l-14.66,34.41-47.99-13.66-16.37,39.57,44.02,9.2-12.53,32.34-38.6-9.19-12.35,29.74,50.19,11.9-13.97,32.65-82.71-20.8c9.69-21.43,19.1-43.33,28.22-65.72,12.79-31.4,25.01-63.74,36.65-97.05,19.09,3.79,45.79,9.32,80.09,16.59Z"/><path class="cls-2" d="M1327.6,315.25l-90.61-22.79,1.96-4.33c9.64-21.32,19.12-43.39,28.16-65.58,12.76-31.34,25.07-63.93,36.58-96.86l1.14-3.26,3.39.67c19.04,3.78,45.25,9.21,80.14,16.6l4.73,1-17.92,42.09-47.96-13.65-13.19,31.86,43.92,9.18-15.47,39.95-38.68-9.21-9.26,22.29,50.24,11.91-17.16,40.12ZM1248.15,287.07l74.81,18.81,10.78-25.19-50.14-11.89,15.44-37.18,38.51,9.17,9.58-24.73-44.13-9.23,19.56-47.27,48.03,13.67,11.39-26.74c-30.52-6.46-54.14-11.35-71.92-14.9-11.22,31.95-23.19,63.55-35.58,93.97-8.47,20.79-17.31,41.46-26.33,61.52Z"/></svg>