<?xml version="1.0" encoding="UTF-8"?>
<svg id="grafica" xmlns="http://www.w3.org/2000/svg" version="1.1" viewBox="0 0 352.4 197.7">
  <!-- Generator: Adobe Illustrator 30.3.0, SVG Export Plug-In . SVG Version: 2.1.3 Build 182)  -->
  <defs>
    <style>
      .st0 {
        stroke: #fff;
        stroke-width: 1.6px;
      }

      .st0, .st1, .st2 {
        stroke-miterlimit: 10;
      }

      .st0, .st3 {
        fill: #010101;
      }

      .st4, .st2 {
        fill: #ec64a1;
      }

      .st5, .st1 {
        fill: #fff;
      }

      .st1 {
        stroke: #231f20;
      }

      .st1, .st2 {
        stroke-width: .9px;
      }

      .st6 {
        fill: #7cb8d7;
      }

      .st2 {
        stroke: #010101;
      }
    </style>
  </defs>
  <path class="st3" d="M324.1,50.2l-13.5-3.8c-43.1-12-88.3-18.1-134.4-18.1s-91.2,6.1-134.4,18.1l-13.5,3.8v10.7l22.5,56.1,13.5-3.8c35.9-10,73.6-15,111.9-15s76,5.1,111.9,15l13.5,3.8,22.5-56.1v-10.7Z"/>
  <g>
    <path class="st4" d="M290.3,98.7c-36.6-10.2-75-15.3-114.1-15.3s-77.5,5.2-114.1,15.3l-7.3,2-19.2-48.1,8.4-2.3c42.4-11.8,86.9-17.8,132.2-17.8s89.8,6,132.2,17.8l8.4,2.3-19.2,48.1-7.3-2Z"/>
    <path class="st5" d="M176.2,33c45.2,0,89.7,6,132,17.8l7.8,2.2-18.8,47.1-6.8-1.9c-36.7-10.2-75.1-15.4-114.2-15.4s-77.6,5.2-114.2,15.4l-6.8,1.9-18.8-47.1,7.8-2.2c42.4-11.8,86.8-17.8,132-17.8M176.2,31.9c-45.3,0-89.9,6-132.3,17.8l-9,2.5,19.7,49.1,7.8-2.2c36.6-10.2,74.9-15.3,113.9-15.3s77.4,5.2,113.9,15.3l7.8,2.2,19.7-49.1-9-2.5c-42.5-11.8-87-17.8-132.3-17.8h0Z"/>
  </g>
  <polygon class="st3" points="77.3 97.2 77.3 99.1 77.3 126.4 77.3 128.3 176.7 169.3 276.1 128.3 276.1 126.4 276.1 99.1 276.1 97.2 77.3 97.2"/>
  <path class="st6" d="M273.1,98.2c-.9-.2-1.7-.4-2.6-.6-30.4-6.8-61.9-10.3-93.8-10.3s-63.4,3.5-93.8,10.3c-.9.2-1.7.4-2.6.6v23.6l69.1,28.5h0l27.3,11.3,27.3-11.3h0l69.1-28.5v-23.6Z"/>
  <g>
    <g>
      <path class="st2" d="M156.2,116.2c.8.9,1.5,1.8,2.2,2.6,1.1,1.2,2.2,2.3,3.3,3.5.5.6.5.9,0,1.3-1,.8-3.1,1.1-4.4-.1-2-1.7-3.9-3.6-5.5-5.7,0,0-.1-.1-.2-.2-.3,1.5-.5,2.8-.8,4.2-.1.7-.2,1.4-.4,2-.1.7-.3.9-.9.7-.7-.2-1.4-.3-2.1-.6-.9-.3-1.2-1-1.1-2,.4-4.1.7-8.3,1.2-12.4.2-2,.7-3.9,1.1-5.8.2-.9.7-1.5,1.5-1.9,1.7-.7,3.3-1.6,5-2.1,1.3-.4,2.6-.5,4-.2,1.1.2,2,.8,2.7,1.7,1,1.3,1.9,2.7,2.4,4.4.6,2,.3,3.8-.9,5.4-1.2,1.6-2.7,2.7-4.3,3.7-.8.5-1.7,1-2.6,1.5ZM152.5,112.6c1.8-.5,4.1-2.1,5.4-3.7.5-.6.9-1.2,1.3-1.9.5-1,.1-1.7-.9-1.9,0,0-.1,0-.2,0-1.3-.1-2.5.2-3.7.8-.1,0-.3.3-.3.4-.3,1.3-.7,2.7-1,4-.2.7-.4,1.5-.6,2.3Z"/>
      <path class="st2" d="M180.9,108.4c0,4.5-.9,8.5-2.8,12.1-.6,1.1-1.3,2.1-2.3,2.9-1.4,1.2-3,1.4-4.6,1.1-.8-.1-1.6-.3-2.4-.5-2.2-.8-3.7-2.4-4.2-5-.7-3.2-.6-6.4.3-9.6.8-3,2.1-5.6,4.1-7.8,1.5-1.6,3.2-2.3,5.3-1.9,1.3.3,2.6.7,3.8,1.5,1.6,1,2.5,2.7,2.8,4.7.1.9.1,1.8.2,2.4ZM175.7,108.1c0-.5-.1-1.3-.2-2.2,0-.5-.2-1.1-.8-1.3-.5-.2-1,.2-1.2.7-.6.9-1.2,1.8-1.7,2.8-1.5,3.1-2.4,6.3-2.2,9.8,0,.8.2,1.6.5,2.3.3,1,1.2,1.2,1.9.5.7-.5,1.1-1.3,1.5-2.1,1.5-3.2,2.2-6.6,2.3-10.6Z"/>
      <path class="st2" d="M138.2,110.9c.8,0,1.5-.1,2.3-.2.5,0,1.1,0,1.6,0,.4,0,.7.3.9.6.5.9.7,1.9.9,2.9,0,.3-.1.6-.4.6-.7.2-1.3.3-2,.5-1.5.3-2.9.6-4.4.9,0,0-.2.1-.3.2-.2,1-.5,2.1-.7,3.2.8-.1,1.6-.3,2.4-.4.9,0,1.7-.2,2.6-.2.6,0,1.1.3,1.3.9.3.6.5,1.3.8,2,.2.6,0,.9-.5,1-1.7.4-3.4.7-5.1,1.1-.7.2-1.4.3-2.1.5-.7.2-1.4,0-2-.5-.6-.4-1.1-.9-1.6-1.4-.7-.7-1-1.5-.9-2.6.5-3.9,1-7.9,1.5-11.8.3-2.1.5-4.2.8-6.3,0-.2,0-.4.3-.4,3.1-.9,6.2-1.5,9.3-1.9.7,0,1.4,0,2.1,0,.6,0,1,.4,1.2,1,.3.9.6,1.8.8,2.7.2.7,0,1-.7,1.2-1,.2-2,.3-2.9.4-1.2.2-2.5.3-3.7.5,0,0-.2.1-.3.2-.5,1.7-.9,3.5-1.4,5.3Z"/>
      <g>
        <path class="st2" d="M114.2,114.2c.4-.6.7-1.1,1-1.7.2-.4.4-.9.7-1.3.4-.8.8-1.5,1.2-2.3.4-.9.8-1.8,1.3-2.6.4-.7.8-1.5,1.2-2.2.3-.6.6-1.3.9-1.9.4-.9.9-1.7,1.3-2.6.3-.5.5-1.1.8-1.7.3-.7.7-1.3,1-2,.1-.3.3-.6.4-.9.2-.5.9-.9,1.3-.8.4.1.8.3,1.1.5.7.6,1.4,1.2,2.1,1.8.7.7.9,1.7.5,2.5-.3.6-.5,1.2-.8,1.8-.4,1-.9,1.9-1.4,2.9-.3.6-.6,1.2-.9,1.8-.4.8-.9,1.6-1.3,2.4-.3.5-.6,1.1-.8,1.6-.3.6-.7,1.3-1,1.9-.5.8-.9,1.7-1.4,2.5-.3.5-.6,1-.9,1.5-.3.6-.6,1.2-.9,1.7-.6,1-1.2,2-1.8,3-.3.5-.7,1.1-1.1,1.6-.3.4-.7.5-1.1.4-.6,0-1.2-.4-1.7-.6-.6-.2-1.1-.6-1.6-.9-.6-.4-1.2-.7-1.7-1.1-.8-.7-1.3-1.6-1.5-2.8-.5-3.5-.6-7.1-.7-10.7,0-.6.1-1.3.4-1.8.3-.6.6-1.1,1-1.6.2-.3.5-.4.8-.6.7-.3,1.3-.2,1.9.4.6.7,1,1.6,1.2,2.5.2,1,.4,2,.5,3.1.1,1.3.2,2.6.2,4,0,.5,0,1.1,0,1.6,0,.1,0,.3.1.4Z"/>
        <path class="st2" d="M130.1,111.8c0,1-.2,2-.3,3,0,0,0,0,0,.1-.3,1.1-.6,2.2-1,3.3-.4,1.1-.9,2-1.6,2.9-.6.9-1.2,1.7-2,2.4-.4.4-.7.8-1.1,1.1-.6.5-1.3,1.1-2,1.4-.6.2-1.1.6-1.7.8-.8.3-1.7.5-2.5.7-1.3.3-2.7.2-4.1,0-.5,0-1-.2-1.5-.4-.4-.1-.8-.2-1.2-.4-.4-.2-.8-.5-1.2-.6-.6-.2-1.1-.6-1.6-1-.4-.3-.8-.6-1.2-1-.1-.1-.1-.3-.3-.4-.4-.4-.8-.7-1.2-1-.2-.2-.3-.4-.4-.6-.2-.3-.3-.6-.5-.8-.1-.2-.3-.4-.5-.6-.3-.5-.6-1-.8-1.5-.4-.8-.7-1.6-1-2.5-.2-.8-.4-1.6-.5-2.4-.1-1-.2-1.9-.2-2.9,0-1.2.2-2.5.4-3.7.2-1.2.7-2.3,1.1-3.5,0,0,0,0,0-.1.5-.5.6-1.3,1-1.8.5-.6,1-1.3,1.5-1.9.2-.3.5-.6.7-.8.6-.5,1.2-1,1.8-1.5.7-.6,1.4-1,2.2-1.3,1-.4,2-.9,3-1,.7,0,1.4-.1,2-.2,1.1,0,2.2,0,3.2.3.6.1,1.1.3,1.7.5.2,0,.2.2.3.4,0,.6-.1,1.1-.4,1.5,0,0-.3.1-.5,0-1-.4-2-.6-3.1-.6-.8,0-1.6,0-2.5,0-.8.1-1.7.4-2.5.7-.8.3-1.6.7-2.3,1.2-.9.6-1.7,1.4-2.4,2.2-.6.7-1.1,1.4-1.5,2.3-.4.8-.7,1.6-1,2.4,0,0,0,.1-.1.2,0,0-.1.1-.1.2-.3,1.7-.7,3.3-.6,5,.1,1.2.3,2.3.5,3.5.2.9.5,1.8.9,2.6.3.7.8,1.3,1.1,2,0,0,0,.2.2.3,0,.1.1.2.2.3.3.3.5.6.8.9,0,0,0,.2.2.2.7.5,1.3,1,2,1.5.2.2.5.3.7.4.7.5,1.5.7,2.3,1.1.2,0,.4,0,.6.2.5.2,1.1.3,1.6.3.9,0,1.8,0,2.6,0,1.2-.2,2.4-.4,3.5-1.1.6-.4,1.3-.7,1.9-1.1,1-.8,1.9-1.6,2.6-2.7.1-.2.3-.3.4-.5.6-.9,1-1.8,1.4-2.8.2-.6.4-1.3.6-2,.3-.7.2-1.4.3-2.1.1-1,0-2,0-3,0-.4-.1-.8-.2-1.1,0-.9-.4-1.6-.6-2.4-.1-.5-.1-.8.2-1.1.2-.2.3-.3.5-.5.3-.2.6,0,.8.2.8,2.1,1.3,4.3,1.3,6.7Z"/>
      </g>
    </g>
    <g>
      <path class="st1" d="M189.5,120.4c-2.2-2.1-3.3-5.3-3.3-9.9,0-8.6,4.2-12.9,12.6-12.9s3.9.2,5.7.7c1.7.5,3,1,3.9,1.6v8h-7.7v-2.3c0-.8-.2-1.4-.5-1.8-.4-.4-.9-.6-1.6-.6s-1.3.2-1.6.6c-.4.4-.5,1-.5,1.8v9.7c0,.8.2,1.4.5,1.8.4.4.9.6,1.6.6s1.3-.2,1.6-.6c.4-.4.5-1,.5-1.8v-2.6h7.7v8.3c-.9.6-2.2,1.1-3.9,1.6-1.7.5-3.6.7-5.6.7-4,0-7.2-1-9.4-3.1Z"/>
      <path class="st1" d="M230.6,117.8v5.3h-8.8v-2.5c-1.5,2-3.5,3-5.8,3s-3.1-.6-4-1.7c-.9-1.1-1.3-2.6-1.3-4.6v-6.8h-1.4v-5.3h8.8v10.5c0,.7.2,1.2.5,1.6.3.3.8.5,1.4.5s1.1-.2,1.4-.5c.3-.3.5-.9.5-1.6v-5.3h-1.7v-5.3h9.1v12.6h1.4Z"/>
      <path class="st1" d="M231.3,124.9h1.4v-14.4h-1.4v-5.3h8.8v2.2c.5-.7,1.2-1.3,2.1-1.8.8-.5,1.8-.8,2.9-.8,2.2,0,3.8.8,4.9,2.4,1.1,1.6,1.7,3.9,1.7,6.9s-.6,5.3-1.7,6.9c-1.1,1.6-2.7,2.4-4.9,2.4s-2.1-.3-2.9-.8c-.8-.5-1.5-1.1-2.1-1.8v4h2.2v5.3h-11v-5.3ZM243.4,117.3c.3-.3.5-.9.5-1.6v-3.2c0-.7-.2-1.2-.5-1.6-.3-.3-.8-.5-1.4-.5s-1.1.2-1.4.5c-.3.3-.5.8-.5,1.6v3.2c0,.7.2,1.2.5,1.6.3.3.8.5,1.4.5s1.1-.2,1.4-.5Z"/>
    </g>
  </g>
  <g>
    <g>
      <path class="st3" d="M62,90c-1.4-4.1-2.8-8.1-4.2-12.2-2.5-7-5.1-13.9-7.7-20.7,2.5-.9,4.8-1.7,6.8-2.2,3.7-.9,6.4-1.1,8.2-.5,2.7.9,4.6,2.6,5.7,5,.3.6.5,1.2.7,1.8.6,1.7.8,3.2.6,4.6-.2,1.9-1.2,3.4-3,4.6,2.4-.2,4.2.2,5.6,1.2,1.2.9,2.1,2.3,2.7,4.2.1.4.2.8.3,1.2.7,2.6.5,4.7-.6,6.3-1,1.6-2.8,2.9-5.2,4-1.4.6-3,1.1-5,1.6-1.5.4-3.2.7-5.1,1ZM58.2,61l3.6,9.8c2.8-.8,4.3-2.3,4.5-4.2,0-1.1,0-2-.3-3-.3-.8-.7-1.5-1.3-2.2-1-1.2-2.6-1.5-4.9-1-.5.1-1,.3-1.6.5ZM63.7,75.4l2.6,7.5c.4,0,.7-.1,1-.2,2.8-.7,4.4-1.9,4.6-3.6.1-.9,0-1.8-.2-2.5-.2-.7-.6-1.2-1.2-1.6-.9-.7-2.6-.7-5-.1-.6.1-1.2.3-1.8.5Z"/>
      <path class="st3" d="M82.3,85.1c-.5-13.5-1.1-25.2-1.8-35l9.1-1.9c4.7,9.5,10,20.1,15.8,31.7l-5.8,2.3-4.1-8.3-7.4,1.3.5,9.6-6.4.3ZM93.7,67.4c-1.7-3.2-4.1-7-7.2-11.4-.4,4.3-.6,8.6-.5,13l7.7-1.6Z"/>
      <path class="st3" d="M105.4,68.7l7.2-1.4c0,1,.2,1.9.3,2.7.6,3.5,1.8,5.2,3.7,5h0c2.2-.3,3.1-1.6,2.8-3.8v-.2c-.5-2.4-3-4.4-7.6-6.2-4.4-1.7-7.1-5.1-8-10.3,0-.2,0-.3,0-.5-.9-5.5,1.7-8.7,7.9-9.6h.2c5.6-.8,9,2.4,10.1,9.4,0,.6.2,1.1.2,1.8l-6.4,1.2c0-.7-.1-1.4-.2-2-.5-2.9-1.5-4.3-2.9-4.1-1.7.2-2.5,1.2-2.4,3,0,.2,0,.5.1.7.3,1.4.9,2.7,2,3.8,1.2,1.3,3.2,2.4,5.8,3.2,2.6.9,4.6,2.3,5.9,4.2.9,1.4,1.5,2.9,1.8,4.5.1.6.2,1.3.2,1.9,0,2.4-.7,4.5-2.2,6.2-1.4,1.7-3.6,2.8-6.4,3.3-.2,0-.4,0-.6,0-2.6.3-4.9-.3-7-1.9-2-1.5-3.4-4.6-4.2-9.2-.1-.6-.2-1.1-.3-1.8Z"/>
      <path class="st3" d="M133.8,44.2l1.4,15.4c2.3-5.4,4.5-10.5,6.5-15.1l7.2-.2c-2,4.5-4.9,10.1-8.4,16.7,2.4,3.9,6,9.3,10.7,16l-7.8.7c-1.8-3.5-4.5-8-8-13.3l1.2,12.6-5.8.5c-.7-8.3-1.8-19-3.1-32.2l6.3-1Z"/>
      <path class="st3" d="M169.6,41.9v7.1s-10.1,0-10.1,0v8.1c.1,0,9.1-.5,9.1-.5l.3,6.6-8,.2v6.1c.1,0,10.5-.3,10.5-.3v6.7s-17.1.2-17.1.2c0-4.4,0-8.9,0-13.5-.2-6.4-.5-12.9-1-19.6,3.9-.3,9.3-.6,16.3-1Z"/>
      <path class="st3" d="M176.4,48.2l.3-6.6c2.5.1,5,.2,7.5.2,3.9,0,7.7,0,11.4,0l-.3,7.1h-6.5c-.7,11.6-1.2,20.7-1.3,27.3l-7,.2c1-11.3,1.8-20.7,2.3-28.1h-6.5Z"/>
      <path class="st3" d="M202.5,76.6c-.6-10.8-1.6-22.4-2.9-34.9l7.6-.3.7,27.3c3.5-9.1,6.5-17.6,9-25.3l7,1.3c-5.8,14.8-10,25.4-12.7,32.1l-8.8-.3Z"/>
      <path class="st3" d="M228,77.9h-6.3c2.3-11.7,4.2-22.9,5.9-33.6h7.5c-2.5,11.4-4.8,22.6-7.1,33.6Z"/>
      <path class="st3" d="M248.2,44.7c-2.5,8.6-4.5,15.9-6,21.9-.6,2.4-1.1,4.5-1.6,6.5l11.2,1-1.9,7.7-17.6-2c.5-2,1-4.1,1.5-6.2,2.4-9.5,4.5-19.3,6.5-29.2l7.9.4Z"/>
      <path class="st3" d="M272.7,48.6c-3.2,8.5-5.7,15.6-7.7,21.5-.8,2.3-1.5,4.5-2.1,6.4l11,1.5-2.4,7.5-17.4-2.8c.7-2,1.4-4,2-6.1,3.1-9.4,6-19.1,8.8-28.9l7.8.8Z"/>
      <path class="st3" d="M304.2,57.2l-2.9,6.8-9.4-2.7-3.2,7.8,8.7,1.8-2.5,6.4-7.6-1.8-2.4,5.8,9.9,2.3-2.8,6.4-16.3-4.1c1.9-4.2,3.8-8.5,5.6-12.9,2.5-6.2,4.9-12.5,7.3-19.1,3.8.7,9,1.8,15.8,3.3Z"/>
    </g>
    <g>
      <path class="st0" d="M60.2,88.9c-1.4-4.1-2.8-8.2-4.3-12.2-2.5-7-5.1-13.9-7.7-20.7,2.5-.9,4.8-1.7,6.8-2.2,3.7-.9,6.4-1.1,8.2-.5,2.7.9,4.6,2.6,5.7,5.1.3.6.5,1.2.7,1.8.6,1.7.8,3.2.6,4.6-.2,1.9-1.2,3.4-3,4.6,2.4-.2,4.2.2,5.6,1.2,1.2.9,2.1,2.3,2.8,4.2.1.4.2.8.3,1.2.7,2.6.5,4.7-.6,6.3-1,1.6-2.8,2.9-5.2,4-1.4.6-3,1.1-5,1.6-1.5.4-3.2.7-5.1,1ZM56.3,59.9l3.6,9.9c2.8-.8,4.3-2.3,4.5-4.2,0-1.1,0-2-.3-3-.3-.8-.7-1.5-1.3-2.2-1-1.2-2.6-1.5-4.9-1-.5.1-1,.3-1.6.5ZM61.9,74.3l2.6,7.5c.4,0,.7-.1,1-.2,2.8-.7,4.4-1.9,4.6-3.6.1-1,0-1.8-.2-2.5-.2-.7-.6-1.2-1.2-1.6-.9-.7-2.6-.7-5-.1-.6.1-1.2.3-1.8.5Z"/>
      <path class="st0" d="M80.5,84.1c-.6-13.5-1.2-25.2-1.8-35.1l9.1-1.9c4.8,9.5,10.1,20.1,15.9,31.8l-5.8,2.3-4.1-8.3-7.4,1.3.5,9.6-6.4.3ZM91.9,66.3c-1.7-3.2-4.1-7-7.2-11.5-.4,4.3-.6,8.6-.5,13l7.7-1.6Z"/>
      <path class="st0" d="M103.6,67.6l7.2-1.4c0,1,.2,1.9.3,2.7.6,3.5,1.9,5.2,3.7,5h0c2.2-.4,3.1-1.6,2.7-3.8v-.2c-.5-2.4-3-4.4-7.6-6.2-4.4-1.7-7.1-5.1-8.1-10.3,0-.2,0-.3,0-.5-.9-5.5,1.7-8.7,7.9-9.7h.2c5.6-.8,9,2.4,10.1,9.4,0,.6.2,1.1.2,1.8l-6.4,1.2c0-.7-.1-1.4-.2-2-.5-2.9-1.5-4.3-2.9-4.1-1.7.2-2.5,1.2-2.4,3,0,.2,0,.5.1.7.3,1.4.9,2.7,2,3.8,1.3,1.3,3.2,2.4,5.8,3.3,2.6.9,4.6,2.3,5.9,4.2.9,1.4,1.5,2.9,1.8,4.6.1.6.2,1.3.2,1.9,0,2.4-.7,4.5-2.2,6.2-1.4,1.7-3.6,2.9-6.4,3.3-.2,0-.4,0-.6,0-2.6.3-4.9-.3-7-1.9-2-1.5-3.4-4.6-4.3-9.2-.1-.6-.2-1.2-.3-1.8Z"/>
      <path class="st0" d="M132,43l1.4,15.4c2.3-5.5,4.4-10.5,6.5-15.1l7.2-.2c-2,4.6-4.8,10.1-8.4,16.7,2.4,3.9,6,9.3,10.7,16l-7.8.7c-1.8-3.5-4.5-8-8-13.4l1.2,12.6-5.8.5c-.7-8.3-1.8-19.1-3.2-32.3l6.3-1Z"/>
      <path class="st0" d="M167.8,40.7v7.1c0,0-10.1,0-10.1,0l.2,8.1,9-.5.3,6.6-8,.2v6.1c.1,0,10.5-.3,10.5-.3v6.7s-17.1.2-17.1.2c0-4.4,0-8.9,0-13.5-.2-6.4-.5-13-1-19.7,3.9-.3,9.3-.6,16.3-1Z"/>
      <path class="st0" d="M174.7,47.1l.3-6.6c2.5.1,5,.2,7.5.2,3.9,0,7.7,0,11.4,0l-.2,7.1h-6.5c-.7,11.6-1.1,20.7-1.3,27.3l-7.1.2c1-11.3,1.7-20.7,2.3-28.1h-6.5Z"/>
      <path class="st0" d="M200.8,75.5c-.7-10.8-1.7-22.5-3-34.9l7.7-.3.8,27.4c3.5-9.2,6.5-17.6,9-25.3l7,1.3c-5.8,14.8-10,25.5-12.7,32.2l-8.8-.3Z"/>
      <path class="st0" d="M226.4,76.8h-6.3c2.2-11.7,4.2-22.9,5.8-33.7h7.5c-2.4,11.4-4.8,22.6-7,33.7Z"/>
      <path class="st0" d="M246.5,43.5c-2.5,8.6-4.5,15.9-6,21.9-.6,2.4-1.1,4.5-1.6,6.5l11.2,1-1.9,7.7-17.7-2c.5-2.1,1-4.1,1.5-6.2,2.3-9.6,4.5-19.3,6.5-29.3l7.9.4Z"/>
      <path class="st0" d="M271,47.4c-3.1,8.5-5.7,15.7-7.7,21.6-.8,2.3-1.5,4.5-2.1,6.4l11.1,1.5-2.4,7.6-17.4-2.8c.7-2,1.3-4.1,2-6.1,3.1-9.4,6-19.1,8.7-28.9l7.8.8Z"/>
      <path class="st0" d="M302.5,56l-2.9,6.8-9.5-2.7-3.2,7.8,8.7,1.8-2.5,6.4-7.6-1.8-2.4,5.9,9.9,2.3-2.8,6.4-16.3-4.1c1.9-4.2,3.8-8.5,5.6-13,2.5-6.2,4.9-12.6,7.2-19.1,3.8.7,9,1.8,15.8,3.3Z"/>
    </g>
  </g>
  <g>
    <path class="st3" d="M157.1,136.6c0-.5,0-.9,0-1.3,0-1.4.3-2.4.8-3,.6-.8,1.5-1.3,2.5-1.4.4,0,.7,0,1.1,0,.6,0,1.2,0,1.8.3.9.3,1.6.8,2,1.6.4.7.5,1.5.5,2.6s0,.4,0,.6c0,1.3-.5,2.6-1.2,3.7s-1.9,2.7-3.7,4.8h5.1s0,3,0,3c-2.2.1-5.1.2-8.6.2l-.3-3.2c2.1-2.3,3.6-4,4.5-5.3.8-1.1,1.2-2.2,1.2-3.3v-.3c0-1.2-.6-1.8-1.5-1.8h0c-.8,0-1.2.7-1.2,2.1s0,.5,0,.9h-2.9Z"/>
    <path class="st3" d="M171.8,130.8c3.1,0,4.6,2.8,4.6,8.4s-1.6,8.4-4.9,8.4-4.9-2.9-4.9-8.7,1.8-8.1,5.3-8.1ZM169.7,139.3c0,.2,0,.4,0,.6,0,3.1.6,4.6,1.9,4.6s2-1.7,2-5.2-.6-5.2-1.9-5.2-1.9,1.7-2,5.2Z"/>
    <path class="st3" d="M177.5,136.6c0-.5,0-.9,0-1.3,0-1.4.3-2.4.8-3,.6-.8,1.5-1.3,2.5-1.4.4,0,.7,0,1.1,0,.6,0,1.2,0,1.8.3.9.3,1.6.8,2,1.6.4.7.5,1.5.5,2.6s0,.4,0,.6c0,1.3-.5,2.6-1.2,3.7s-1.9,2.7-3.7,4.8h5.1s0,3,0,3c-2.2.1-5.1.2-8.6.2l-.3-3.2c2.1-2.3,3.6-4,4.5-5.3.8-1.1,1.2-2.2,1.2-3.3v-.3c0-1.2-.6-1.8-1.5-1.8h0c-.8,0-1.2.7-1.2,2.1s0,.5,0,.9h-2.9Z"/>
    <path class="st3" d="M190.3,139.5c.6-1.1,1.5-1.7,2.6-1.7h0c1.2,0,2,.4,2.6,1.3s.9,1.8,1,2.9v.3c0,1-.2,2-.5,3-.4,1.1-1,1.8-1.8,2.2-.6.3-1.2.4-2,.4s-.5,0-.8,0c-1.1-.1-1.9-.6-2.6-1.5s-1.1-2-1.4-3.4c-.2-1-.3-2.2-.3-3.5s0-.9,0-1.4c0-1.8.3-3.3.7-4.5s.9-2,1.7-2.5c.7-.5,1.5-.7,2.5-.7h0c.9,0,1.8.3,2.4.9s1.1,1.4,1.3,2.5c.1.7.2,1.4.2,2s0,.7,0,1h-2.6c0-.3,0-.5,0-.8,0-1.5-.3-2.3-.8-2.4-.1,0-.3,0-.4,0-.5,0-.8.2-1.1.7-.4.6-.6,1.4-.7,2.5,0,.7-.1,1.4-.1,1.9s0,.5,0,.8ZM190.5,141.7c0,1,.1,1.8.4,2.3s.6.8,1.1.9c0,0,.2,0,.2,0,.4,0,.7-.2,1-.5.3-.4.5-1,.5-1.9v-.2c0-1-.4-1.6-1.1-1.8-.1,0-.2,0-.3,0-.6,0-1.2.4-1.9,1.2Z"/>
  </g>
</svg>