<svg version="1.2" xmlns="http://www.w3.org/2000/svg" viewBox="0 0 218 36" width="1920" height="317">
	<style>
		.s0 { fill: #ffffff } 
		.s1 { fill: #f7741f } 
	</style>
	<g id="Livello 1">
		<g id="&lt;Group&gt;">
			<g id="&lt;Group&gt;">
				<path id="&lt;Path&gt;" class="s0" d="m50.47 28.81c0.97 0 1.84 0.47 2.39 1.28l0.04 0.05 0.81-0.4-0.04-0.06c-0.71-1.13-1.88-1.78-3.2-1.78-2.16 0-3.85 1.74-3.85 3.97 0 2.22 1.69 3.96 3.85 3.96 1.31 0 2.51-0.67 3.2-1.78l0.01-0.02v-2.34h-3.3v0.92h2.39v1.21c-0.54 0.68-1.42 1.1-2.3 1.1-1.66 0-2.9-1.31-2.9-3.05 0-1.75 1.25-3.06 2.9-3.06z"/>
				<path id="&lt;Compound Path&gt;" fill-rule="evenodd" class="s0" d="m65.96 32.65l1.74 3.09h-1.06l-1.64-2.9h-2.01v2.9h-0.92v-7.77h2.93c1.4 0 2.46 1.05 2.46 2.43 0 1.01-0.59 1.88-1.5 2.25zm-2.97-0.73h2.01c0.99 0 1.51-0.77 1.51-1.52 0-0.75-0.52-1.51-1.51-1.51h-2.01z"/>
				<path id="&lt;Compound Path&gt;" fill-rule="evenodd" class="s0" d="m79.2 28.01l2.92 7.73h-1.02l-0.82-2.22h-3l-0.83 2.22h-1.01l2.93-7.77h0.81zm-0.42 1.47l-1.15 3.12h2.31z"/>
				<path id="&lt;Path&gt;" class="s0" d="m95.33 34l-4.17-6-0.03-0.03h-0.82v7.77h0.92v-6.05l4.2 6.05h0.82v-7.77h-0.92z"/>
				<path id="&lt;Compound Path&gt;" fill-rule="evenodd" class="s0" d="m111.07 31.87c0 2.24-1.64 3.87-3.91 3.87h-2.41v-7.77h2.41c2.27 0 3.91 1.64 3.91 3.9zm-5.41-2.98v5.93h1.43c1.8 0 3.01-1.19 3.01-2.95 0-1.76-1.23-2.98-3-2.98z"/>
				<path id="&lt;Path&gt;" class="s0" d="m119.41 27.97h0.92v7.77h-0.92z"/>
				<path id="&lt;Path&gt;" class="s0" d="m131.67 31.37c-1.5-0.26-2-0.57-2-1.25 0-0.85 0.66-1.31 1.86-1.31 0.46 0 1.57 0.11 1.8 1.06l0.02 0.07 0.88-0.3-0.02-0.06c-0.31-1.01-1.39-1.69-2.68-1.69-0.95 0-1.71 0.27-2.2 0.76-0.38 0.39-0.59 0.91-0.58 1.47 0.01 1.53 1.43 1.91 2.77 2.16 1.54 0.28 2.08 0.51 2.08 1.26 0 1.08-1.27 1.37-1.94 1.37-1.12 0-1.93-0.41-2.23-1.12l-0.02-0.06-0.87 0.31 0.02 0.06c0.29 0.8 1.28 1.72 3.12 1.72 1.37 0 2.85-0.71 2.85-2.28 0-1.57-1.48-1.94-2.86-2.17z"/>
				<path id="&lt;Path&gt;" class="s0" d="m146.25 28.81c0.99 0 1.86 0.47 2.4 1.28l0.03 0.05 0.82-0.4-0.04-0.06c-0.69-1.11-1.89-1.78-3.21-1.78-2.14 0-3.83 1.74-3.83 3.96 0 2.23 1.69 3.96 3.83 3.96 1.31 0 2.52-0.66 3.21-1.77l0.04-0.06-0.82-0.41-0.03 0.05c-0.54 0.82-1.41 1.29-2.4 1.29-1.64 0-2.88-1.31-2.88-3.06 0-1.74 1.24-3.05 2.88-3.05z"/>
				<path id="&lt;Path&gt;" class="s0" d="m162.69 31.39h-4.07v-3.42h-0.92v7.77h0.92v-3.43h4.07v3.43h0.92v-7.77h-0.92z"/>
				<path id="&lt;Path&gt;" class="s0" d="m172.97 32.31h3.88v-0.92h-3.88v-2.5h4.22v-0.92h-5.14v7.77h5.21v-0.92h-4.29z"/>
				<path id="&lt;Compound Path&gt;" fill-rule="evenodd" class="s0" d="m189.59 32.65l1.73 3.09h-1.06l-1.64-2.9h-2v2.9h-0.92v-7.77h2.92c1.41 0 2.47 1.05 2.47 2.43 0 1.01-0.59 1.88-1.5 2.25zm-2.97-0.73h2c1 0 1.52-0.77 1.52-1.52 0-0.75-0.52-1.51-1.52-1.51h-2z"/>
				<path id="&lt;Path&gt;" class="s0" d="m203.28 32.67l-2.95-4.67-0.02-0.03h-0.84v7.77h0.94v-5.96l2.55 4.02 0.01 0.03h0.61l2.59-4.05v5.96h0.93v-7.77h-0.83z"/>
				<path id="&lt;Path&gt;" class="s0" d="m215.6 27.97h0.92v7.77h-0.92z"/>
				<path id="&lt;Path&gt;" class="s0" d="m69.15 0.52v22.95h-4.36v-14.46l-5.6 9.05h-2.6l-5.6-9.05v14.46h-4.36v-22.95h4.06l7.18 11.6 7.25-11.6z"/>
				<path id="&lt;Compound Path&gt;" fill-rule="evenodd" class="s0" d="m100.76 12.03c0 6.59-4.52 11.7-11.11 11.7-6.59 0-11.15-5.11-11.15-11.7 0-6.6 4.56-11.71 11.15-11.71 6.59 0 11.11 5.11 11.11 11.71zm-4.46 0c0-4.2-2.49-7.35-6.65-7.35-4.2 0-6.69 3.15-6.69 7.35 0 4.16 2.49 7.31 6.69 7.31 4.16 0 6.65-3.15 6.65-7.31z"/>
				<path id="&lt;Compound Path&gt;" fill-rule="evenodd" class="s0" d="m126.54 16.45c0 4-2.63 7.02-7.68 7.02h-8.75v-22.95h8.16c4.4 0 7.02 2.98 7.02 6.55 0 1.68-0.85 3.22-2.07 4.3 2.04 0.98 3.32 2.69 3.32 5.08zm-12.07-11.74v4.72h3.9c1.7 0 2.46-1.11 2.46-2.36 0-1.27-0.76-2.36-2.46-2.36zm7.51 11.74c0-1.64-1.09-2.85-3.12-2.85h-4.39v5.7h4.39c2.03 0 3.12-1.21 3.12-2.85z"/>
				<path id="&lt;Path&gt;" class="s0" d="m140.24 0.52v22.95h-4.36v-22.95z"/>
			</g>
			<path id="&lt;Path&gt;" class="s1" d="m164.18 19.3v4.17h-13.77v-22.95h4.36v18.78z"/>
			<path id="&lt;Path&gt;" class="s1" d="m188.61 19.3v4.17h-15.25v-22.95h15.05v4.19h-10.69v5.22h9.67v4.16h-9.67v5.21z"/>
			<path id="&lt;Compound Path&gt;" fill-rule="evenodd" class="s1" d="m217.69 11.99c0 6.72-4.43 11.48-12.04 11.48h-7.37v-22.95h7.37c7.61 0 12.04 4.75 12.04 11.47zm-4.36 0c0-4.36-2.95-7.28-7.77-7.28h-2.92v14.59h2.92c4.82 0 7.77-2.92 7.77-7.31z"/>
			<path id="&lt;Path&gt;" class="s0" d="m25.38 0.32h10.63v10.63h-10.63z"/>
			<path id="&lt;Path&gt;" class="s0" d="m12.95 0.32h10.64v10.63h-10.64z"/>
			<path id="&lt;Path&gt;" class="s0" d="m0.53 12.77h10.63v10.63h-10.63z"/>
			<path id="&lt;Path&gt;" class="s0" d="m25.38 25.19h10.63v10.64h-10.63z"/>
			<path id="&lt;Path&gt;" class="s1" d="m12.95 15.07v8.33h2.31 6.01 2.31v-2.31-6.01-2.31h-8.34c-2.27-0.02-4.08-1.86-4.08-4.13v-6.01-2.31h-2.31-6.01-2.31v10.64h8.33c2.27 0 4.09 1.84 4.09 4.11z"/>
			<path id="&lt;Path&gt;" class="s1" d="m25.38 12.77v8.33c-0.01 2.27-1.85 4.09-4.12 4.09h-8.31v2.09q-0.02 0.11-0.02 0.23v6q0.01 0.12 0.02 0.23v2.09h2.29 6.01 2.34v-8.76c0.22-2.07 1.97-3.67 4.1-3.67h6.01 2.31v-2.31-6.01-2.31z"/>
			<path id="&lt;Path&gt;" class="s0" d="m0.53 25.19h10.63v10.64h-10.63z"/>
		</g>
	</g>
</svg>