<?xml version="1.0" encoding="utf-8"?>
<!-- Generator: Adobe Illustrator 28.4.1, SVG Export Plug-In . SVG Version: 6.00 Build 0)  -->
<svg version="1.1" id="Livello_1" xmlns="http://www.w3.org/2000/svg" xmlns:xlink="http://www.w3.org/1999/xlink" x="0px" y="0px"
	 viewBox="0 0 243.2 138.2" style="enable-background:new 0 0 243.2 138.2;" xml:space="preserve">
<style type="text/css">
	.st0{fill:#E30613;}
	.st1{clip-path:url(#SVGID_00000013165662663790203850000013997415796225911456_);fill:#E30613;}
</style>
<g>
	<path class="st0" d="M113,64.5c-0.2,1.6-2.8,9.5-3.5,11.5c-1.2,3.5-2.8,7.3-4.5,10.4c-1.6,2.9-4,6.6-6.6,8.1
		c-3.1,1.8-8.4,3-11.2-0.2c-1.1-1.3-1.7-3.5-1.9-5.5C84.8,82.6,87.8,77,92,73.2c2.5-2.3,5.7-4.2,9.1-5.6
		C103.8,66.4,109.8,64.6,113,64.5 M113.2,57.9c0.7,0,2-0.5,2.4-0.2c-0.2,0.9-0.6,0.5-1.3,0.9c0.3,0.3,0.4-0.4,0.2,0.5
		c-0.4,0.2-1,0.1-1.5,0.2c-1.2,0-1.3,0.2-1.5-0.2c-0.6,0.1-1,0.3-1.7,0.4c-0.7,0.1-1.3,0-2,0c0,0.4-0.1,0.2-1.2,0.4l-4.4,0.8
		c-5.5,1.3-9.9,2.7-14.6,5.8c-2.8,1.8-5.2,3.9-7.2,6.4c-1,1.2-1.9,2.6-2.7,4.1c-1.4,2.5-1.2,3-2.1,4.8c-0.6-0.5-1.5-7.2-1.6-8
		c-0.3-2.9-0.3-6.2,0-9.3l0.5-0.2c0,0,0.1,0,0.1-0.1l-0.6,0c-0.1-1.1,0.7-1.8,1.1-2.6l-0.7,0.6c0.1-3.3,2-8.8,3.1-11.5
		c7.2-17,24-29,43.1-29.2c4.7-0.1,8.8,0.5,13,1.5c1.8,0.4,3.8,1.1,5.5,1.8c0.7,0.3,4.7,2,4.9,2.3c-0.2,0.1-2.6,0.2-3.1,0.3
		c-0.9,0.1-2,0.4-2.9,0.6c-1.1,0.3-4.6,1.3-5.2,2c-0.3,0.9-0.8,6.2-0.9,7.6c2.3-0.1,8.8-2.5,13.1-0.1c2,1.1,2.6,2.6,2.3,4.8
		c-1,7.5-5,15.5-12.7,17.2c-4.1,0.9-4.7,0.1-7.1,0.3c-0.3,0.6-0.9,2.7-0.9,3.4l-0.2,1.1c0.5,0.3,0.8,0,1,0.4
		c0.9-0.1,2.2,0.3,3.2,0.3c11,0.3,19-6.6,24.2-15.7c1.6-2.7,2.4-4.9,2.5-8.4c0-1.3-0.2-2.5-0.2-3.6l0.8,0.7c0.2,0.2,0.4,0.5,0.6,0.7
		c2.7,3.1,5.9,8.6,7.5,12.4c4.9,12,4.8,25.6-0.5,37.6c-2.4,5.4-5.4,9.6-9.1,13.6c-7.3,7.9-19.1,13.9-30.5,14.6
		c-8,0.5-12.6-0.2-19.8-2.5c-2.6-0.8-5.8-2.3-7.8-3.5c-1.3-0.8-6.1-3.7-6.7-4.7c1-0.6,8.8-0.9,17.6-11.8
		c7.2-8.9,12.5-24.2,15.4-35.9c0.8-3.4,2.2-8.5,2.7-11.9c0.8-4.5,2.6-15.9,2.1-20c-0.1,0-8.7,3.3-9,3.8c-0.3,0.6-0.9,5-1,6.1
		c-0.3,1.8,0,1.4-1.4,2.1c-1.8,1-6.1,3.3-7.6,3.4c-3,0.3-3-1.9-2.9-4.5c-0.8,0.1-1.5,0.3-2.2,0.4c-1.9,0.5-1.8-0.5-3.2,4.2
		c-2.6,8.6,1.3,9.8,8.4,6.6c1.1-0.5,2.3-1,3.5-1.5c0.9-0.4,2.7-1.2,3.6-1.4c0,1.5-2.2,10.9-2.6,11.8
		C114.2,57.6,113.7,57.6,113.2,57.9 M66.5,68.4c0,8.7,1.8,16.6,5,23.6c8.4,18.2,27.2,32.3,49.5,32.3c15.3,0,28.9-5.4,39.7-16.1
		c8.3-8.2,16.1-21.9,16.1-38.2c0-9.4-1.6-16.3-5-23.9c-6.9-15.2-20.9-26.8-37.2-30.6c-12.9-3-23.5-1.8-35.8,3.4
		c-2.9,1.2-6.3,3.3-8.6,4.9c-8,5.7-14.3,13-18.6,22.3C68.8,52.2,66.5,60.6,66.5,68.4"/>
	<path class="st0" d="M132.6,79.8l-0.6,0.6c-0.1,0.1-0.2,0.2-0.3,0.3c-0.4,0.3,0,0-0.4,0.2l0.6-1c0.2-0.2,0.1-0.1,0.3-0.2
		c0.4-0.9,2-2.5,2.3-3.5l-9.4,0.3c-0.7,0.9-1.3,2.2-1.9,3.2l-5.8,9.6c-0.5,0.8-7.6,12.3-7.8,12.9c1.4,0.1,2.9,0,4.3-0.1
		c5-0.1,3.4,0.7,5.6-3c3.5-5.8,12.5-18.3,18-20.6c1-0.4,2.8-0.7,2.9,0.7c0.1,1.1-0.7,2.4-1.2,3.1c-2.1,3.5-4.7,6-7,10.1
		c-4.9,8.9,3.2,13.4,10.3,8.5c3.2-2.2,6.3-5.6,8.7-8.4c0.5-0.6,7.5-8.7,7.7-9.2c-0.2-0.3-1.4-0.8-1.8-0.8l-2.6,3.2
		c-2.6,3-5.3,6.4-8,9.1c-9.7,9.9-10.8,4.9-6.9-0.5c0.9-1.2,1.5-2.2,2.4-3.4c2.3-3.1,5.8-7.5,5.1-11.8c-0.5-3.1-3.8-4.4-7.3-3.6
		C136,76.6,133.5,79.3,132.6,79.8"/>
	<path class="st0" d="M82.7,54.7c-0.3,0.4-0.5,0.5-0.9,0.6l-0.5,0.3c-0.1,0.2,0,0.1-0.2,0.3c0,0-0.1,0.1-0.1,0.1
		c-0.2,0.2-0.1,0.1-0.4,0.1c-0.1,0.2,0.1,0-0.2,0.3c-0.2,0.2,0,0-0.3,0.2l0,0c-0.3,0.5-0.4,0.5-0.9,0.7L79,57.6
		c-0.2,0.3,0.2,0.1-0.4,0.4c-0.1,0-0.3,0.1-0.3,0.1c-0.1,0.2,0,0.1-0.2,0.3c-0.1,0.1-0.1,0.1-0.3,0.2c-0.3,0.2-0.2,0.3-0.6,0.5
		l-0.4,0.5c-0.1,0.4-0.1,0.3-0.3,0.6c-0.1,0.1-0.2,0.2-0.2,0.2c-0.1,0.1-0.1,0.1-0.2,0.2c0,0.1-0.2,0.3-0.2,0.3c0,0-0.1,0.1-0.1,0.1
		c-0.2,0.2,0,0-0.3,0.2l-0.2,0.2c-0.4,0.8-1.2,1.5-1.1,2.6l0.6,0c0.5-0.3,0.7-1,0.9-1.6c0.1-0.4-0.1-0.1,0.2-0.4
		c0,0,0.1-0.1,0.1-0.1c0.3-0.3,0,0,0.2-0.2c0.1-0.3-0.1,0,0.1-0.3c0.3-0.5,0-0.1,0.3-0.3h0c0.1-0.4,0-0.3,0.5-0.5l0.2-0.3
		c0.3-0.7,0.7-0.9,1.2-1.3c0.4-0.3,0.9-0.9,1.3-1.1c0.4-0.2,0.4-0.4,0.8-0.6c0-0.3,0-0.4,0.6-0.5c-0.1,0.6-0.2,0.3-0.3,0.9
		c-0.1,0.5-0.1,0.4-0.4,0.8c-0.1,0.5-0.1,1.2-0.3,1.7c-0.2,0.5-0.3,1.2-0.5,1.6c-0.2,0.7-0.7,3.2-0.4,3.7c2.9,0.4,0.9-1.4,1.9-2.6
		c0-0.8,0.3-1.7,0.3-2.3c0-0.4,0.2-0.6,0.2-0.9l0.3-1.4c0.2-0.7,0.1-0.5,0.3-0.7c0.1-0.3,0.5-1.2,0.2-1.6c-0.2-0.2-0.2,0-0.2-0.3
		c0.1-0.1,0.1-0.1,0.3-0.2l0,0l0.4-0.3c0.7-0.5,2.5-1.4,3.3-1.8c0.1-0.1,0.1-0.1,0.3-0.2c0,0,0.1,0,0.1,0c0-0.1,0.1,0,0.1,0l0.3,0
		c0.1-0.2,0-0.2,0.5-0.3c0.2,0,0.4,0,0.6,0c0,0.5-0.1,0.5-0.4,0.7l-0.4,0.4c-0.2,0.6-0.1,0.2-0.7,0.8L86,55.6
		c-0.1,0.2,0.1,0-0.2,0.3c-0.1,0.1-0.1,0.1-0.3,0.2c-0.3,0.2-0.2,0.2-0.5,0.4l-0.1,0.1c-0.3,0.4-1.3,1.3-1.8,1.5L83,58.2
		c-0.1,0.3,0.2,0.2-0.1,0.2c0,0.2,0,0.1-0.2,0.1c-0.1,0.2,0.2,0.2-0.1,0.2c0,0.2,0,0.1-0.2,0.1l-0.2,0.4c-0.1,0.3-0.3,0.5-0.2,1
		c0,0,0.5,0,0.5,0l0.4-0.2l0.4-0.3l0.1-0.1c0.1-0.1,0.1-0.1,0.2-0.2c0,0,0.1-0.1,0.2-0.1c0.3-0.1,0.1-0.1,0.4-0.2
		c0.6-0.3,2-1.1,2.6-1.2c0.2-0.3,0.1-0.2,0.6-0.3c0.5-0.2,0.9-0.3,1.5-0.5c0.3-0.1,0.7-0.1,1.1-0.1c0.5,0.1,0.5,0.1,0.5,0.6l0,0.3
		l-0.3,0.1l-1.2,1.3c-0.1,0.3,0,0.2-0.3,0.4c-0.2,0.1,0,0-0.2,0.2L88,60.4l0,0c-0.1,0.2,0,0.2-0.4,0.5l-0.5,0.4
		c-0.1,0.3,0,0.2-0.3,0.3l0,0c0,0.3,0.1,0.2-0.1,0.2l-0.2,0.1c-0.1,0.3,0,0.2-0.2,0.3c-0.1,0.3,0.1,0-0.2,0.3
		c-0.1,0.1-0.2,0.1-0.4,0.2l-0.2,0.2l-0.7,0.7l-0.2,0.2l-0.4,0.4c-0.2,0.4-0.2,0.4-0.6,0.6l-1,1.1c-0.1,0.2-0.2,0.3-0.3,0.4
		c-0.3,0.3-0.2,0.2-0.5,0.3l-0.3,0.2c-0.2,0.3-0.7,0.8-1.1,0.9c0-0.1-0.1-0.1,0-0.3c0.2-0.5,0-0.1,0.3-0.3l0.3-0.7l0.3-0.4
		c0.3-0.4,0.7-0.9,0.8-1.2c0.2-0.4,1.4-1.9,1.9-2.1c0.2-0.5,0.3-0.5,0.6-0.6c0.2-0.5-0.3,0.1,0.1-0.2c0,0,0.1,0,0.1,0
		c0,0,0.1,0,0.1,0c0.1-0.3-0.1-0.1,0.2-0.4c0.1-0.1,0.3-0.2,0.4-0.3c0.3-0.2,0.6-0.4,1-0.5c0.4-0.1,0.8-0.3,0.9-0.9
		c0.2-0.9-0.7-0.6-1-0.3c-0.2,0.3,0,0-0.2,0.3c-0.2,0.2,0,0-0.3,0.1c-0.1,0.1,0,0.2-0.3,0.3c-0.3,0.3-0.1,0.1-0.4,0.2l0,0
		c-0.1,0.3,0.2,0.2-0.1,0.3L85,60.7l-0.2,0.2l-0.4,0.4l0-0.1c-0.1,0.3,0,0.2-0.3,0.4c-0.2,0.2-0.2,0.2-0.4,0.3l-0.4,0.5
		c-0.1,0.2,0,0.2-0.2,0.5c0,0.1-0.1,0.2-0.2,0.2c-0.2,0.2,0,0-0.3,0.2l0,0c-0.3,0.5-0.2,0.6-0.7,0.9l-0.4,0.6l-0.2,0.4l-0.9,1.5
		c-0.2,0.5-0.5,1-0.8,1.6l-0.5,1.4c-0.1,0.6-0.1,0.3,0.1,0.5c0.4,0.3,0.2,0.1,0.5,0c0.1-0.1,0.4-0.2,0.6-0.3
		c0.3-0.3,0.2-0.2,0.5-0.4c0,0,0.2-0.2,0.2-0.2c0.2-0.2,0,0,0.3-0.2c0.1-0.4,0.1-0.3,0.3-0.5c0,0,0.1-0.1,0.1-0.1
		c0.1,0.1,0.2-0.2,0.5-0.5c0.2-0.2,0-0.1,0.2-0.2l0.4-0.4l0.3-0.3l0,0.1c0-0.3-0.1-0.2,0.1-0.2c0-0.3,0,0,0.2-0.1l0.3-0.3l0.3-0.4
		l0,0c0.2-0.4,0.1-0.1,0.5-0.5c0.4-0.4,1-1.3,1.4-1.5l0.3-0.3l0.3-0.1c0.1-0.1,0.1-0.3,0.2-0.4c0.4-0.4,0-0.1,0.4-0.3l0.4-0.3
		c0.2-0.5,0.1-0.3,0.6-0.8l0.1-0.1l0.7-0.8c0.2-0.2,0.4-0.5,0.8-0.7c0.3-0.5,0.8-0.9,1.3-1.3l0.2-0.2l0.3-0.4c0.2-0.2,0.4-0.6,0.4-1
		c0-0.4-0.1-0.8-0.5-0.9l-0.4-0.3c-0.8,0-1.3-0.1-2,0c-0.7,0.1-1.1,0.4-1.8,0.4c-0.2,0.2,0,0.1-0.2,0.2c0,0-0.3,0.1-0.3,0.1
		c-0.1,0-0.2,0.1-0.3,0.1c-0.3,0-0.2,0-0.3-0.1c0.2-0.3,0-0.2,0.4-0.3l0.7-0.6l1-0.8l0,0c0.1-0.2,0-0.1,0.2-0.3c0,0,0.1-0.1,0.1-0.1
		c0.1-0.1,0.2-0.1,0.4-0.2l0.3-0.3c0.2-0.3,0.2-0.5,0.7-0.6c0.1-0.5,0.5-0.7,0.5-0.8c0-0.1,0.1-0.1,0.1-0.1l-0.1-0.6
		c-1.8-0.2-2.9,0.2-4.3,0.7C85.2,53.2,83.2,54.3,82.7,54.7"/>
	<path class="st0" d="M99.2,56.6L99,56.8l-0.9,0.8l-0.8,0.6c-0.3,0-0.6,0.3-0.9,0.5l-0.7,0.5l-0.4,0.2c-0.3,0.2-0.5,0.4-0.8,0.4
		c-0.2,0.3,0.3,0.2-0.4,0.3c-0.1-0.2-0.2,0.2-0.1-0.3c0.1-0.3,0-0.1,0.2-0.2c0.1-0.2,0-0.1,0.2-0.4l1-1.1c0.2-0.3,0.7-0.6,1-0.7
		c0.5-0.3,1.4-1,2-0.9c0.2-0.3,0-0.2,0.4-0.3l1.2,0L99.2,56.6z M109.8,54.5c-0.3,0-1.5,0.3-1.9,0.4c-0.6,0.2-1.2,0.5-1.8,0.6
		c-0.3,0.3-0.2,0.2-0.7,0.3c-0.7,0-1.5,0.4-2,0.7c-0.1,0.1-0.1,0.1-0.3,0.2c0,0-0.1,0.1-0.1,0c0,0-0.1,0-0.1,0
		c-0.2,0.2-0.5,0.3-0.8,0.5c-0.4,0.2-0.4,0.4-1,0.4c0.1-0.6,0.4-1,0.8-1.3l0.1-0.2l0.8-0.8l0.2-0.7c-1.1-0.2-1.4,0-2,0.4
		c-0.2,0.3,0.3,0.1-0.3,0.3l-0.4-0.8c-1.2,0-2.1,0.3-3,0.7c-0.3,0.2-0.8,0.4-1.2,0.6c-0.4,0.3-0.8,0.6-1.2,0.7
		c-0.2,0.3,0,0.2-0.3,0.3c-0.1,0.3,0.1,0.1-0.2,0.3c0,0-0.3,0.2-0.3,0.2c-0.2,0.1-0.3,0.2-0.5,0.4l-0.3,0.3c-0.7,0.8-1.6,1.8-0.7,3
		c0.7,0.1,1.5,0,1.9-0.4c0.3-0.4,1.5-1.2,1.8-1.4c0.1-0.2-0.1,0,0.2-0.3c0.3-0.2,0.2-0.1,0.5-0.2c0.4-0.3,0.2-0.3,0.7-0.5
		c0.3-0.1,0.5-0.3,0.7-0.5c0.1-0.2,0-0.1,0.2-0.3c0.2-0.2-0.1,0,0.3-0.2l0.3,0c0,0.6-0.1,1.2,0.4,1.4c0.2,0,0.1,0.2,0.8,0
		c0.7-0.1,1.7-0.7,2.3-1l0.7-0.5c0.5,0,0.1,0.1,0.4-0.1c0.2-0.2,0-0.2,0.4-0.3c0.5-0.3,1.7-0.7,2.3-0.8c0.7-0.2,1.8-0.6,2.5-0.6
		c0.3-0.3,0.6-0.5,0.7,0.1l-0.4,0.1l-1,0.6l-0.8,0.6l-0.3,0.3l-0.4,0.3c-0.7,0.8,0,1.4,0.6,1.7c0.7,0.1,1.3,0.1,2,0
		c0.7-0.1,1.1-0.3,1.7-0.4l2.8-0.4c0.7-0.4,1.2,0,1.3-0.9c-0.5-0.3-1.7,0.2-2.4,0.2l-2.3,0.3l-0.6,0.2c-0.2,0-0.3,0.1-0.5,0.1
		c-0.4,0.1-0.8,0.1-1.2-0.1c0-0.2-0.1-0.4,0.9-0.8c0.5-0.2,1.1-0.6,1.7-0.7c0.4-0.4,0.3-0.1,1-0.5c0.1-0.6,0.2-1.6-0.5-1.9
		C111.1,54.2,110.4,54.4,109.8,54.5"/>
	<path class="st0" d="M111.6,59c0.2,0.4,0.3,0.3,1.5,0.2c0.5,0,1.1,0,1.5-0.2c0.1-0.9,0.1-0.2-0.2-0.5L111.6,59z"/>
	<path class="st0" d="M79.2,65.6c0.2,0.4,1,0.3,1.4,0.2l-0.3,0.8l0.9-1.5c-0.3-0.3-0.2,0.2-0.2-0.6c0,0,0-0.4,0-0.5c0-0.4,0-0.7,0-1
		C80.1,64.2,82.1,66,79.2,65.6"/>
	<path class="st0" d="M109.8,54.5c0.6-0.1,1.3-0.4,2-0.1c0.7,0.2,0.6,1.3,0.5,1.9c-0.7,0.4-0.6,0.1-1,0.5c1.6-0.3,1.2-0.7,1.1-2.2
		C111.4,53.9,110.1,54,109.8,54.5"/>
	<path class="st0" d="M103,56.8c-0.6,0-1,0.5-1.6,0.8c0.1-0.7,0.3-0.5,0.6-1.2c-0.4,0.3-0.7,0.8-0.8,1.3c0.6,0,0.6-0.1,1-0.4
		C102.5,57.1,102.8,57,103,56.8"/>
	<path class="st0" d="M111,58.2l-2.2,0.1c0.1-0.4,0.4-0.2,0.8-0.8c-1,0.4-0.9,0.6-0.9,0.8c0.3,0.3,0.7,0.2,1.2,0.1
		c0.2,0,0.3,0,0.5-0.1L111,58.2z"/>
	<path class="st0" d="M77.1,60.4l1.3-1.2c0.4-0.4,1-0.8,1.3-1.3c-0.5,0.3-0.9,0.8-1.3,1.1C77.8,59.5,77.4,59.7,77.1,60.4"/>
	<path class="st0" d="M127.3,64.5c-0.2-0.4-0.5-0.1-1-0.4l0.2-1.1c-0.4,0.3-0.4,0.7-0.4,1.2C126.6,64.4,126.8,64.5,127.3,64.5"/>
	<path class="st0" d="M82.2,64.7c0.5-0.3,0.7-0.7,1-1c0.2-0.2,0.7-0.8,0.8-1C83.6,62.8,82.4,64.3,82.2,64.7"/>
	<path class="st0" d="M132.6,79.8c-0.4,0.2-0.1,0-0.4,0.2c-0.1-0.1-0.2,0.3-0.1-0.3c-0.2,0.1-0.1,0-0.3,0.2l-0.6,1
		c0.4-0.2,0,0.1,0.4-0.2c0.1-0.1,0.2-0.2,0.3-0.3L132.6,79.8z"/>
	<path class="st0" d="M83.8,66.1c0.6-0.3,0.6-0.5,1-0.9c0.3-0.3,0.7-0.7,0.8-1.1c-0.4,0.2-1,1.2-1.4,1.5C83.9,66,84,65.7,83.8,66.1"
		/>
	<path class="st0" d="M80.4,57.4c0.2,0,0.2,0,0.1,0.5c-0.1,0.3-0.1,0.2-0.2,0.7c0.3-0.4,0.3-0.3,0.4-0.8c0.1-0.6,0.2-0.3,0.3-0.9
		C80.5,57,80.4,57.1,80.4,57.4"/>
	<path class="st0" d="M94.7,60.9c0.4-0.1,1.6-1,1.8-1.4C96.1,59.7,95,60.4,94.7,60.9"/>
	<path class="st0" d="M98.3,56.4l1-0.2c0,0.1-0.1,0.3-0.1,0.4l0.7-0.5l-1.2,0C98.4,56.3,98.5,56.2,98.3,56.4"/>
	<path class="st0" d="M80.9,67c-0.2,0.2-0.1-0.2-0.3,0.3c-0.1,0.2,0,0.2,0,0.3c0.4-0.1,0.9-0.6,1.1-0.9c-0.3,0.1-0.1,0-0.4,0.3
		c-0.1,0.1-0.2,0.2-0.4,0.3L80.9,67z"/>
	<path class="st0" d="M83.1,58.1c0.5-0.2,1.5-1.1,1.8-1.5c-0.5,0.2-0.8,0.6-1.3,1L83.1,58.1z"/>
	<path class="st0" d="M84.9,61.8c0.3-0.2,0.4-0.4,0.8-0.6c0.1-0.1,0.3-0.1,0.4-0.2l0.5-0.4c-0.4,0.1-0.7,0.3-1,0.5
		c-0.1,0.1-0.4,0.2-0.4,0.3C84.8,61.7,85,61.5,84.9,61.8"/>
	<path class="st0" d="M88,61.8c0.5-0.2,0.4-0.3,0.8-0.7c0.2-0.3,0.2-0.2,0.4-0.4c0.4-0.3,0.2-0.2,0.3-0.5c-0.3,0.2-0.6,0.5-0.8,0.7
		L88,61.8z"/>
	<path class="st0" d="M87.2,53.5l1-0.2c0,0.1-0.1,0.2-0.2,0.3c-0.1,0.2,0,0-0.1,0.3c0.4-0.2,0.4-0.2,0.4-0.7c-0.2,0-0.4-0.1-0.6,0
		C87.1,53.3,87.3,53.3,87.2,53.5"/>
	<path class="st0" d="M86,55.6l0.7-0.5c0.6-0.5,0.5-0.2,0.7-0.8C87.1,54.5,86.2,55.2,86,55.6"/>
	<path class="st0" d="M86.9,56.6c-0.1,0-0.4,0.1-0.5,0.1c-0.3,0-0.1,0.1-0.3-0.1c-0.3,0.1-0.2,0-0.4,0.3c0.1,0.1,0,0.1,0.3,0.1
		c0.1,0,0.2,0,0.3-0.1c0,0,0.3-0.1,0.3-0.1C86.9,56.7,86.8,56.8,86.9,56.6"/>
	<path class="st0" d="M89.4,60.3c0.3-0.1,0.1,0.1,0.4-0.2c0.2-0.2,0.1-0.2,0.3-0.3c0.4-0.4,0.3-0.1,0.6-0.7
		C90.2,59.4,89.7,59.9,89.4,60.3"/>
	<path class="st0" d="M77.2,59.2c0.4-0.2,0.3-0.3,0.6-0.5c0.1-0.1,0.2-0.1,0.3-0.2c0.2-0.2,0.1-0.1,0.2-0.3
		c-0.3,0.1-0.4,0.2-0.6,0.4c0,0-0.2,0.2-0.2,0.2C77.2,59.1,77.4,58.9,77.2,59.2"/>
	<path class="st0" d="M76,60.7c0.1-0.1,0.1,0,0.2-0.2c0.1-0.1,0.2-0.2,0.2-0.2c0.3-0.3,0.2-0.2,0.3-0.6c-0.3,0.2-0.2,0.3-0.5,0.5
		C76,60.5,76,60.2,76,60.7"/>
	<path class="st0" d="M109.3,55.6l0.5,0c-0.1,0.1,0,0.1-0.1,0.3l0.4-0.1C110,55.1,109.6,55.3,109.3,55.6"/>
	<path class="st0" d="M85,56.5c0.4-0.2,0.3-0.2,0.5-0.4c0.1-0.1,0.2-0.1,0.3-0.2c0.3-0.3,0.1-0.1,0.2-0.3c-0.3,0.1-0.3,0.2-0.5,0.3
		c-0.1,0.1-0.2,0.1-0.3,0.2C85,56.4,85.2,56.2,85,56.5"/>
	<path class="st0" d="M93.8,57.9c0.2-0.1,0.3-0.2,0.5-0.4c0,0,0.3-0.2,0.3-0.2c0.2-0.2,0.1,0,0.2-0.3c-0.2,0.1-0.3,0.2-0.5,0.4
		c-0.1,0.1-0.2,0.2-0.3,0.2C93.7,57.9,93.9,57.7,93.8,57.9"/>
	<path class="st0" d="M87.1,61.2l0.5-0.4c0.4-0.3,0.3-0.3,0.4-0.5C87.7,60.6,87.2,60.9,87.1,61.2"/>
	<path class="st0" d="M101.1,55.1l-0.3,0.1c0-0.1,0-0.2-0.1-0.3c-0.2-0.3,0-0.1-0.3-0.2l0.4,0.8C101.4,55.3,100.9,55.4,101.1,55.1"
		/>
	<path class="st0" d="M79.2,57.4c0.4-0.2,0.6-0.2,0.9-0.7c-0.2,0.1-0.3,0.1-0.5,0.3c0,0-0.2,0.1-0.2,0.2
		C79.2,57.3,79.4,57.1,79.2,57.4"/>
	<path class="st0" d="M94.6,59.8l-0.4,0.1l0-0.4c-0.2,0.2-0.1-0.1-0.2,0.2c-0.1,0.5,0,0.1,0.1,0.3C94.9,60,94.4,60.1,94.6,59.8"/>
	<path class="st0" d="M80.3,69.8c0.5-0.2,0.7-0.3,0.9-0.8c-0.3,0.2-0.1,0-0.3,0.2c0,0-0.2,0.2-0.2,0.2
		C80.4,69.6,80.5,69.4,80.3,69.8"/>
	<path class="st0" d="M81.5,68.5c0.5-0.1,0.7-0.4,0.8-0.8c-0.2,0.1,0,0-0.2,0.2C81.8,68.2,81.7,68.6,81.5,68.5
		C81.6,68.4,81.5,68.5,81.5,68.5"/>
	<path class="st0" d="M81.7,55.3c0.4-0.1,0.6-0.2,0.9-0.6c-0.4,0.1-0.1-0.1-0.5,0.2C82,55,81.9,55.1,81.7,55.3"/>
	<path class="st0" d="M87.2,62.7c0.4-0.3,0.5-0.3,0.6-0.8C87.4,62.3,87.4,62.2,87.2,62.7"/>
	<path class="st0" d="M98.1,57.6l0.9-0.8c-0.4,0.1-0.2,0-0.6,0.3c0,0-0.2,0.2-0.2,0.2C98,57.6,98.1,57.4,98.1,57.6"/>
	<path class="st0" d="M82.7,63.3c0.3-0.2,0.1,0,0.3-0.2c0.1-0.1,0.1-0.1,0.2-0.2c0.2-0.3,0.1-0.2,0.2-0.5
		C83,62.7,82.9,62.9,82.7,63.3"/>
	<path class="st0" d="M89.6,53.7c0.4-0.2,0.5-0.4,0.6-0.9c0,0-0.1,0-0.1,0.1C90.1,53,89.7,53.3,89.6,53.7"/>
	<path class="st0" d="M83.3,59.6c0.4,0,0.5-0.1,0.8-0.5c-0.3,0.1-0.2,0-0.4,0.2c0,0-0.1,0.1-0.2,0.1C83.4,59.5,83.4,59.5,83.3,59.6"
		/>
	<path class="st0" d="M82,66.5c0.3-0.2,0.2,0,0.5-0.3c0.1-0.1,0.2-0.2,0.3-0.4c-0.3,0.1-0.1,0-0.3,0.2c0,0-0.2,0.2-0.2,0.2
		C82.2,66.3,82.1,66.3,82,66.5"/>
	<path class="st0" d="M88.9,54.4c0.4-0.2,0.5-0.3,0.7-0.6C89.1,53.9,89.1,54.1,88.9,54.4"/>
	<path class="st0" d="M102.1,56.2c0.3-0.1,0.1,0.1,0.5-0.2c0.2-0.2,0.2-0.2,0.3-0.5L102.1,56.2z"/>
	<path class="st0" d="M85.4,60.3c0.3-0.1,0.1,0.1,0.4-0.2c0.2-0.2,0.2-0.2,0.3-0.3C85.6,59.9,85.6,59.9,85.4,60.3"/>
	<path class="st0" d="M86.9,56.1c0.4-0.1,0.2,0,0.5-0.3c0.1-0.1,0.1-0.1,0.2-0.2c0.3-0.3,0.1-0.1,0.2-0.3L86.9,56.1z"/>
	<path class="st0" d="M96.5,59.5c0.4-0.1,0.4-0.2,0.7-0.5c-0.2,0.1-0.2,0-0.5,0.2C96.4,59.5,96.6,59.3,96.5,59.5"/>
	<path class="st0" d="M94.4,59.1c0.5-0.3,0.2-0.1,0.6-0.5c0.1-0.1,0.2-0.2,0.2-0.3c0.2-0.2,0.1-0.1,0.2-0.3L94.4,59.1z"/>
	<path class="st0" d="M78.3,58.2c0.1,0,0.3-0.1,0.3-0.1c0.5-0.3,0.2-0.1,0.4-0.4c-0.2,0.1-0.2,0.1-0.4,0.2c0,0-0.1,0.1-0.1,0.1
		C78.2,58.1,78.4,58,78.3,58.2"/>
	<path class="st0" d="M80.6,56.1c0.2-0.1,0.1,0,0.4-0.1c0,0,0.1-0.1,0.1-0.1c0.2-0.2,0.1-0.1,0.2-0.3C80.9,55.8,80.8,55.8,80.6,56.1
		"/>
	<path class="st0" d="M97.3,58.2l0.8-0.6c-0.3,0-0.1-0.1-0.5,0.1C97.2,58,97.4,57.9,97.3,58.2"/>
	<path class="st0" d="M83.8,61.9c0.2-0.2,0.2-0.1,0.4-0.3c0.2-0.3,0.1-0.2,0.3-0.4C84.1,61.4,83.8,61.6,83.8,61.9"/>
	<path class="st0" d="M75.4,61.3c0.2-0.1,0.1,0,0.3-0.2c0,0,0.1-0.1,0.1-0.1c0,0,0.2-0.2,0.2-0.3c-0.3,0.1,0-0.1-0.3,0.2
		C75.5,61,75.5,61.1,75.4,61.3"/>
	<path class="st0" d="M83.7,64.7c0.4-0.2,0.4-0.1,0.6-0.6c-0.1,0.1-0.1,0-0.2,0.1c0,0-0.1,0.1-0.1,0.1
		C83.7,64.6,83.9,64.4,83.7,64.7"/>
	<path class="st0" d="M85.8,62.7c0.2-0.1,0.2-0.1,0.4-0.2c0.3-0.3,0.1-0.1,0.2-0.3C85.9,62.3,85.9,62.3,85.8,62.7"/>
	<path class="st0" d="M88,55.3c0.2-0.1,0.2-0.1,0.4-0.2c0,0,0.1-0.1,0.1-0.1c0.1-0.1,0.1-0.1,0.2-0.3c-0.2,0.1-0.2,0.1-0.4,0.2
		c0,0-0.1,0.1-0.1,0.1C88,55.1,88.1,55,88,55.3"/>
	<path class="st0" d="M82.4,56.3l0.1-0.5c-0.2,0.1-0.2,0.1-0.3,0.2C82.3,56.2,82.2,56.1,82.4,56.3"/>
	<path class="st0" d="M76.1,61.8c0.3-0.2,0.3-0.3,0.4-0.6c-0.3,0.2,0-0.2-0.3,0.3C76,61.7,76.1,61.4,76.1,61.8"/>
	<path class="st0" d="M105.5,55.8c0.5,0,0.4,0,0.7-0.3c-0.4,0-0.1,0-0.4,0.1C105.5,55.7,105.5,55.8,105.5,55.8"/>
	<path class="st0" d="M80.1,56.6c0.3-0.2,0.1,0,0.3-0.2c0.3-0.3,0.1-0.1,0.2-0.3C80.2,56.3,80.2,56.2,80.1,56.6"/>
	<path class="st0" d="M81.9,64.2c0.5-0.3,0.5-0.4,0.7-0.9L81.9,64.2z"/>
	<path class="st0" d="M103,57.9c0.2,0,0.3,0,0.5-0.1c0.4-0.3,0.1,0,0.3-0.4L103,57.9z"/>
	<path class="st0" d="M95.7,59.2l0.7-0.5c-0.3,0.1-0.3,0.1-0.5,0.2C95.6,59.2,95.8,59,95.7,59.2"/>
	<path class="st0" d="M84.9,63.5l0.7-0.7c-0.2,0.1-0.2,0.1-0.4,0.3C84.9,63.3,85,63.3,84.9,63.5"/>
	<path class="st0" d="M107.9,57l0.8-0.6c-0.4,0.1,0-0.1-0.4,0.2c0,0-0.1,0.1-0.1,0.1C108,56.9,108.1,56.8,107.9,57"/>
	<path class="st0" d="M98.7,57.9c0.3-0.1,0.1,0,0.3-0.2c0.2-0.2,0,0,0.2-0.3c-0.4,0.2-0.1-0.1-0.3,0.2
		C98.6,57.9,98.8,57.7,98.7,57.9"/>
	<path class="st0" d="M76.4,61.2c0.2-0.2,0,0.1,0.3-0.2c0.2-0.2,0.1-0.1,0.2-0.3C76.4,60.9,76.5,60.8,76.4,61.2"/>
	<path class="st0" d="M75.6,62.5l0.5-0.7c-0.2,0.1,0-0.1-0.2,0.2c0,0-0.1,0.1-0.1,0.1C75.5,62.4,75.7,62,75.6,62.5"/>
	<path class="st0" d="M86,59.7c0.2-0.1,0.1,0,0.3-0.1c0.2-0.2,0,0,0.2-0.3C86.2,59.5,86.2,59.3,86,59.7"/>
	<path class="st0" d="M84.1,62.6l0.6-0.6C84.4,62.1,84.3,62.1,84.1,62.6"/>
	<path class="st0" d="M86.2,63.6l0.6-0.7c-0.4,0.2-0.1-0.1-0.4,0.3C86.4,63.3,86.3,63.5,86.2,63.6"/>
	<path class="st0" d="M90.1,58.2l0.3-0.1l0-0.3c-0.2,0-0.2-0.1-0.2,0.2L90.1,58.2z"/>
	<path class="st0" d="M86.3,53.7c0.5,0,0.3,0,0.6-0.2c0,0-0.1,0-0.1,0c0,0.1-0.1,0-0.1,0C86.4,53.6,86.4,53.6,86.3,53.7"/>
	<path class="st0" d="M94.8,57c0.3-0.1,0.2,0.1,0.3-0.3C94.7,56.9,94.9,56.7,94.8,57"/>
	<path class="st0" d="M86.7,57.9l0.6-0.3C86.8,57.7,86.9,57.6,86.7,57.9"/>
	<path class="st0" d="M84.4,61.2l0.4-0.4c-0.3,0-0.2-0.1-0.2,0.1C84.3,61,84.6,61,84.4,61.2"/>
	<path class="st0" d="M84.3,64.1l0.4-0.4c-0.3,0.1-0.1,0-0.3,0.2C84.3,64,84.4,63.9,84.3,64.1"/>
	<path class="st0" d="M107.2,57.6l0.4-0.3l-0.2,0.1C107.1,57.4,107.3,57.4,107.2,57.6"/>
	<path class="st0" d="M85,60.7l0.2-0.1c0.3,0,0,0,0.1-0.3L85,60.7z"/>
	<path class="st0" d="M82.3,67.8c0.4-0.1,0.2,0.1,0.4-0.4L82.3,67.8z"/>
	<path class="st0" d="M91.1,56.6c0-0.3,0.1-0.2-0.1-0.2l-0.2-0.1L91.1,56.6z"/>
	<path class="st0" d="M82.4,58.8c0.3,0,0.2,0.1,0.2-0.1c0.3,0,0,0,0.1-0.2L82.4,58.8z"/>
	<path class="st0" d="M82.9,67.1l0.3-0.3c-0.2,0.1-0.2-0.1-0.2,0.1C82.9,66.9,82.9,66.9,82.9,67.1"/>
</g>
<polygon class="st0" points="123.4,66.5 123.7,66.2 123.5,66.2 "/>
<g>
	<defs>
		<rect id="SVGID_1_" x="68.4" y="13.9" width="110.3" height="110.4"/>
	</defs>
	<clipPath id="SVGID_00000001642217326112907100000012962040493728311702_">
		<use xlink:href="#SVGID_1_"  style="overflow:visible;"/>
	</clipPath>
	<path style="clip-path:url(#SVGID_00000001642217326112907100000012962040493728311702_);fill:#E30613;" d="M84.6,58.5
		c0.2,0.1,0.2,0.1,0.2-0.1c0.3,0,0,0,0.1-0.2L84.6,58.5z"/>
	<path style="clip-path:url(#SVGID_00000001642217326112907100000012962040493728311702_);fill:#E30613;" d="M92.8,58.8
		c0.2,0,0.2,0.1,0.2-0.1l0.1-0.3L92.8,58.8z"/>
	<path style="clip-path:url(#SVGID_00000001642217326112907100000012962040493728311702_);fill:#E30613;" d="M95.5,58.3l0.3-0.3
		c-0.2-0.1-0.2-0.1-0.2,0.1C95.3,58,95.6,58,95.5,58.3"/>
	<path style="clip-path:url(#SVGID_00000001642217326112907100000012962040493728311702_);fill:#E30613;" d="M97.3,59.4l0.4-0.2
		C97.4,59.2,97.4,59.1,97.3,59.4"/>
	<path style="clip-path:url(#SVGID_00000001642217326112907100000012962040493728311702_);fill:#E30613;" d="M88.4,61.8l0.2-0.1
		c0.2,0,0.2,0,0.1-0.2L88.4,61.8z"/>
	<path style="clip-path:url(#SVGID_00000001642217326112907100000012962040493728311702_);fill:#E30613;" d="M84.8,60
		c0.6-0.1,0.3,0,0.4-0.3L84.8,60z"/>
	<path style="clip-path:url(#SVGID_00000001642217326112907100000012962040493728311702_);fill:#E30613;" d="M85.5,66.5
		c0.3-0.2,0.2,0,0.3-0.4L85.5,66.5z"/>
	<path style="clip-path:url(#SVGID_00000001642217326112907100000012962040493728311702_);fill:#E30613;" d="M84.6,67.4
		c0.2,0.1,0.2,0.1,0.2-0.1l0.1-0.2L84.6,67.4z"/>
	<path style="clip-path:url(#SVGID_00000001642217326112907100000012962040493728311702_);fill:#E30613;" d="M106,57.3l0.4-0.3
		C106,57.1,106.2,57.1,106,57.3"/>
	<path style="clip-path:url(#SVGID_00000001642217326112907100000012962040493728311702_);fill:#E30613;" d="M83.2,65.1l0.2-0.4
		C83.1,64.9,83.2,64.8,83.2,65.1"/>
	<path style="clip-path:url(#SVGID_00000001642217326112907100000012962040493728311702_);fill:#E30613;" d="M87.6,64.1
		c0.2,0.1,0.2,0.1,0.2-0.1l0.1-0.2L87.6,64.1z"/>
	<path style="clip-path:url(#SVGID_00000001642217326112907100000012962040493728311702_);fill:#E30613;" d="M90.5,59.8
		c0.3-0.1,0.2,0,0.3-0.4L90.5,59.8z"/>
	<path style="clip-path:url(#SVGID_00000001642217326112907100000012962040493728311702_);fill:#E30613;" d="M83.1,66.3
		c0.2-0.2,0.2,0,0.3-0.4L83.1,66.3z"/>
	<path style="clip-path:url(#SVGID_00000001642217326112907100000012962040493728311702_);fill:#E30613;" d="M88.8,61.5
		c0.3-0.1,0.2,0,0.3-0.3L88.8,61.5z"/>
	<path style="clip-path:url(#SVGID_00000001642217326112907100000012962040493728311702_);fill:#E30613;" d="M104.9,56.8
		c0,0,0.1,0,0.1,0c0,0,0.1,0,0.1,0c0.2-0.1,0.2-0.1,0.3-0.2L104.9,56.8z"/>
	<path style="clip-path:url(#SVGID_00000001642217326112907100000012962040493728311702_);fill:#E30613;" d="M88.2,62.1
		c0.2-0.1,0.2,0,0.2-0.3L88.2,62.1z"/>
	<path style="clip-path:url(#SVGID_00000001642217326112907100000012962040493728311702_);fill:#E30613;" d="M86.6,62l0.3-0.2
		c0,0-0.1,0-0.1,0c0,0-0.1,0-0.1,0C86.3,62.1,86.8,61.5,86.6,62"/>
</g>
</svg>
