<?xml version="1.0" encoding="UTF-8"?>
<svg id="Livello_1" xmlns="http://www.w3.org/2000/svg" version="1.1" viewBox="0 0 532.7 430">
  <!-- Generator: Adobe Illustrator 30.3.0, SVG Export Plug-In . SVG Version: 2.1.3 Build 182)  -->
  <defs>
    <style>
      .st0 {
        fill: #656565;
      }

      .st1 {
        fill: #befe00;
      }
    </style>
  </defs>
  <path class="st1" d="M215,430c-57.4,0-111.4-22.4-152-63S0,272.4,0,215,22.4,103.6,63,63C103.6,22.4,157.6,0,215,0s111.4,22.4,152,63c40.6,40.6,63,94.6,63,152s-22.4,111.4-63,152-94.6,63-152,63ZM215,70c-80,0-145,65-145,145s65,145,145,145,145-65,145-145-65-145-145-145Z"/>
  <rect class="st0" x="1.8" y="206" width="177.4" height="18"/>
  <g>
    <path class="st0" d="M215.6,173.5h7.2l14.3,42.2h14.7l-16-45c1.3-.5,2.5-1.1,3.8-2,1.8-1.3,3.5-3,5-5.1s2.7-4.7,3.6-7.7,1.4-6.5,1.4-10.5-.6-9-1.9-12.4c-1.3-3.5-3-6.4-5.2-8.6-2.2-2.2-4.8-3.8-7.8-4.8-2.9-1-6-1.5-9.2-1.5h-23.3v97.6h13.5v-42.2h-.1ZM235.9,145.9c0,5-1.1,8.8-3.3,11.4-2.2,2.6-5,3.8-8.6,3.8h-8.4v-30h8.1c1.5,0,3,.2,4.6.7,1.4.4,2.7,1.2,3.8,2.2,1.1,1.1,2,2.6,2.7,4.4.7,2,1.1,4.4,1.1,7.5Z"/>
    <path class="st0" d="M293.6,153.8c-1.7-3.2-4-5.7-6.7-7.6-2.8-1.9-6.2-2.9-10.1-2.9s-6.8,1-9.7,2.8c-2.9,1.9-5.4,4.5-7.4,7.8s-3.5,7.3-4.6,11.8-1.6,9.5-1.6,15c0,11.5,2,20.6,6,27,4.2,6.7,10,10.1,17.3,10.1s9.1-1.5,12.4-4.5c3.1-2.9,5.6-6.6,7.2-11.1l.4-1.1-10.2-6.6-.6,1.8c-.9,2.4-2.1,4.5-3.5,6.2-1.3,1.5-3,2.3-5.3,2.3s-3.1-.5-4.3-1.4c-1.3-1-2.4-2.5-3.3-4.3-.9-1.9-1.6-4.2-2.1-6.9-.4-2.2-.7-4.7-.7-7.2h31.6v-7c0-4.7-.4-9.2-1.1-13.3-.8-4-2-7.8-3.7-10.9ZM267.1,172.9c.1-1.3.3-2.7.5-4.3.4-2.1,1-4.2,1.8-6s1.8-3.3,3.1-4.6c1.1-1.1,2.4-1.6,4.1-1.6,2.9,0,4.9,1.4,6.3,4.5s2.2,7.1,2.3,12h-18.1Z"/>
    <path class="st0" d="M333.5,157.5c.9.8,1.6,1.9,2.1,3.3.5,1.5.9,3.1,1,5,.2,1.9.2,3.8.2,5.6v44.4h13.2v-44.3c0-3.3-.2-6.7-.6-9.9-.4-3.3-1.2-6.3-2.3-9-1.2-2.7-2.9-5-5.1-6.6-2.3-1.7-5.2-2.6-8.7-2.6s-7.7,1.5-10.5,4.5c-1.3,1.4-2.5,2.9-3.4,4.6-.1-1.8-.3-3.7-.5-5.5v-1.3h-12.7v1.6c.3,2.5.4,5.3.5,8.3.1,3.1.1,6,.1,8.6v51.6h13.2v-40.1c0-2.9.3-5.6.8-8.1.5-2.4,1.3-4.5,2.2-6.1.9-1.6,2-2.9,3.3-3.8,1.2-.8,2.4-1.3,3.8-1.3s2.6.3,3.4,1.1Z"/>
    <path class="st0" d="M364.3,207.4c2,3.3,4.4,5.9,7.3,7.8,2.9,1.9,6.2,2.8,9.8,2.8s7-1,10-2.8c2.9-1.9,5.3-4.5,7.3-7.8,1.9-3.2,3.4-7.2,4.5-11.7,1-4.5,1.5-9.5,1.5-14.9s-.5-10.5-1.5-15c-1-4.6-2.5-8.6-4.5-11.8-2-3.3-4.4-5.9-7.3-7.8-2.9-1.9-6.3-2.8-10-2.8s-7,1-10,2.8c-2.9,1.9-5.3,4.5-7.3,7.8-1.9,3.2-3.4,7.2-4.4,11.8-1,4.5-1.5,9.6-1.5,15s.5,10.5,1.5,14.9c1.2,4.5,2.7,8.4,4.6,11.7ZM371.8,180.7c0-3.6.2-6.9.6-10,.4-3,1.1-5.7,1.9-7.9.8-2.1,1.9-3.7,3.1-4.9,1.1-1.1,2.4-1.6,4-1.6s2.8.5,4,1.6c1.3,1.2,2.3,2.8,3.2,4.9.9,2.2,1.6,4.8,2,7.8.4,3.1.6,6.4.6,10s-.2,6.9-.6,9.9-1.1,5.6-1.9,7.8c-.8,2.1-1.9,3.7-3.1,4.9-1.1,1.1-2.5,1.6-4.1,1.6s-2.8-.5-4-1.6c-1.3-1.2-2.3-2.8-3.1-4.9-.9-2.2-1.5-4.8-1.9-7.8-.5-2.9-.7-6.2-.7-9.8Z"/>
    <polygon class="st0" points="437 215.7 453.5 145.6 439.9 145.6 430 195.2 419.8 145.6 405.9 145.6 422.7 215.7 437 215.7"/>
    <path class="st0" d="M495,214c-.2-1.6-.4-3.7-.6-6.3-.2-2.7-.2-5.2-.2-7.5v-27.1c0-4.5-.3-8.6-.9-12.2-.6-3.7-1.7-6.8-3.2-9.4-1.6-2.6-3.7-4.7-6.2-6-2.5-1.4-5.7-2-9.3-2s-6.7.9-10.1,2.6c-3.4,1.8-6.2,4.3-8.3,7.5l-.6.9,7,9.7,1.2-1.8c1.2-1.9,2.7-3.4,4.4-4.5s3.4-1.6,5.4-1.6,4.5,1,6,2.9c1.6,2.1,2.4,5.6,2.4,10.5v1.4h-2.4c-2.7,0-5.6.3-8.5,1-3.1.7-5.9,1.9-8.4,3.8-2.5,1.9-4.6,4.5-6.3,7.7-1.6,3.3-2.5,7.5-2.5,12.5s.5,7.1,1.5,9.7c1,2.7,2.2,4.9,3.7,6.6,1.5,1.8,3.3,3.1,5.3,3.9,1.9.8,3.8,1.2,5.7,1.2,4.4,0,7.9-1.3,10.4-3.8,1.1-1.1,2-2.3,2.8-3.7,0,1.5.3,3,.6,4.6l.2,1.3h11.3l-.4-1.9ZM482.1,182.7v2.4c0,2.2-.2,4.6-.5,7.1-.3,2.4-.9,4.6-1.7,6.7-.8,1.9-1.8,3.6-3.1,4.8-1.1,1.1-2.4,1.6-4.1,1.6s-3-.8-4.3-2.3c-1.3-1.6-2-4.3-2-8.1s.4-4.6,1.1-6.2c.7-1.6,1.7-2.8,2.8-3.6,1.2-.9,2.5-1.5,4-1.8,1.6-.3,3.3-.5,5-.5h2.8Z"/>
    <path class="st0" d="M215.9,241.3c1-1.1,2.2-1.9,3.4-2.4,1.3-.5,2.6-.8,3.9-.8,4.6,0,8.1,2,10.9,6l1.2,1.7,8.3-11.1-.6-.9c-2.3-3.2-5.2-5.7-8.6-7.3-3.4-1.6-7.3-2.4-11.5-2.4s-5.9.6-8.8,1.7-5.5,2.9-7.7,5.3-4,5.4-5.4,8.9c-1.3,3.5-2,7.7-2,12.4s.5,7.5,1.4,10.4c1,3,2.3,5.6,4,7.7s3.6,4.1,5.7,5.7,4.3,3.1,6.7,4.3c1.8,1,3.6,2.1,5.1,3.3,1.5,1.1,2.9,2.4,4.1,3.8,1.1,1.3,2.1,2.9,2.7,4.5s1,3.6,1,5.8c0,4.7-1,8.3-3.1,10.6-2,2.3-4.5,3.5-7.7,3.5s-5-.7-7.5-2.1-4.6-3.3-6.3-5.8l-1.2-1.8-8.2,11.3.6.9c2.4,3.5,5.7,6.3,9.7,8.4s8.4,3.2,12.9,3.2,6.6-.7,9.5-2c3-1.3,5.6-3.3,7.7-5.7,2.1-2.5,3.9-5.5,5.1-9.1s1.9-7.6,1.9-12-.6-7.6-1.7-10.6-2.6-5.7-4.5-8c-1.8-2.2-3.9-4.2-6.1-5.8-2.2-1.6-4.4-3-6.7-4.3-1.7-.9-3.3-2-4.7-3-1.4-1-2.7-2.2-3.7-3.5-1-1.2-1.9-2.7-2.5-4.3-.6-1.6-.9-3.5-.9-5.7s.3-4.8,1-6.6c.7-1.6,1.5-3.1,2.6-4.2Z"/>
    <path class="st0" d="M288.5,262.3c-2-3.3-4.4-5.9-7.3-7.8s-6.3-2.8-10-2.8-7,1-10,2.8c-2.9,1.9-5.3,4.5-7.3,7.8-1.9,3.2-3.4,7.2-4.4,11.8-1,4.5-1.5,9.6-1.5,15s.5,10.4,1.5,14.9,2.5,8.4,4.5,11.7c2,3.3,4.4,5.9,7.3,7.8s6.2,2.8,9.8,2.8,7-1,10-2.8c2.9-1.9,5.3-4.5,7.3-7.8,1.9-3.2,3.4-7.2,4.5-11.7,1-4.5,1.5-9.5,1.5-14.9s-.5-10.5-1.5-15c-1-4.6-2.5-8.6-4.4-11.8ZM281,289c0,3.5-.2,6.9-.6,9.9s-1.1,5.6-1.9,7.8c-.8,2.1-1.9,3.7-3.1,4.9-1.1,1.1-2.5,1.6-4.1,1.6s-2.8-.5-4-1.6c-1.3-1.2-2.3-2.8-3.1-4.9-.9-2.2-1.5-4.8-1.9-7.8s-.6-6.4-.6-9.9.2-6.9.6-10c.4-3,1.1-5.7,1.9-7.9.8-2.1,1.9-3.7,3.1-4.9,1.1-1.1,2.4-1.6,4-1.6s2.8.5,4,1.6c1.3,1.2,2.3,2.8,3.2,4.9.9,2.2,1.6,4.8,2,7.8.3,3.2.5,6.6.5,10.1Z"/>
    <rect class="st0" x="303.1" y="220" width="13.2" height="104"/>
    <path class="st0" d="M371.2,314.2c-.1-3-.1-5.9-.1-8.5v-51.6h-13.1v40c0,2.9-.3,5.6-.8,8s-1.3,4.4-2.2,6.1c-.9,1.6-2,2.9-3.3,3.8-1.2.8-2.4,1.3-3.8,1.3s-2.7-.4-3.5-1.1c-.9-.8-1.6-1.9-2.1-3.3-.5-1.5-.9-3.1-1-4.9-.2-1.9-.2-3.8-.2-5.6v-44.3h-13.2v44.3c0,3.4.2,6.7.6,9.9.4,3.3,1.2,6.3,2.3,8.9,1.2,2.7,2.9,4.9,5,6.5,2.2,1.7,5.2,2.5,8.7,2.5s7.7-1.5,10.5-4.5c1.3-1.4,2.5-2.9,3.4-4.6.1,1.8.3,3.7.5,5.5v1.3h12.7v-1.6c-.2-2.3-.3-5.1-.4-8.1Z"/>
    <path class="st0" d="M405.2,311.9c-.5.2-1.1.4-1.8.6-.7.2-1.3.2-1.9.2-1.5,0-2.6-.6-3.3-1.9-.9-1.5-1.3-4.1-1.3-7.7v-37h10.6v-12.2h-10.6v-17.9h-12.9v17.9h-7.5v12.2h7.6v39.4c0,6.1,1,11,3.1,14.5,2.2,3.8,6,5.7,11.1,5.7s3.1-.2,4.6-.6h0c1.6-.4,2.9-.9,3.9-1.5l.7-.5-.3-12.1-2,.9Z"/>
    <path class="st0" d="M418.9,226.4c-2.3,0-4.2.9-5.7,2.8-1.4,1.7-2.1,3.9-2.1,6.4s.7,4.7,2.1,6.4c1.5,1.8,3.4,2.7,5.7,2.7s4.1-.9,5.6-2.7c1.5-1.7,2.2-3.9,2.2-6.5s-.7-4.6-2.1-6.4c-1.5-1.8-3.4-2.7-5.7-2.7Z"/>
    <rect class="st0" x="412.3" y="253.9" width="13.1" height="70.1"/>
    <path class="st0" d="M474.5,262.3c-2-3.3-4.4-5.9-7.3-7.8-2.9-1.9-6.3-2.8-10-2.8s-7,1-10,2.8c-2.9,1.9-5.3,4.5-7.3,7.8-1.9,3.2-3.4,7.2-4.4,11.8-1,4.5-1.5,9.6-1.5,15s.5,10.4,1.5,14.9,2.5,8.4,4.5,11.7c2,3.3,4.4,5.9,7.3,7.8,2.9,1.9,6.2,2.8,9.8,2.8s7-1,10-2.8c2.9-1.9,5.3-4.5,7.3-7.8,1.9-3.2,3.4-7.2,4.5-11.7,1-4.5,1.5-9.5,1.5-14.9s-.5-10.5-1.5-15c-.9-4.6-2.4-8.6-4.4-11.8ZM467.1,289c0,3.5-.2,6.9-.6,9.9-.4,3-1.1,5.6-1.9,7.8-.8,2.1-1.9,3.7-3.1,4.9-1.1,1.1-2.5,1.6-4.1,1.6s-2.8-.5-4-1.6c-1.3-1.2-2.3-2.8-3.1-4.9-.9-2.2-1.5-4.8-1.9-7.8s-.6-6.4-.6-9.9.2-6.9.6-10c.4-3,1.1-5.7,1.9-7.9.8-2.1,1.9-3.7,3.1-4.9,1.1-1.1,2.4-1.6,4-1.6s2.8.5,4,1.6c1.3,1.2,2.3,2.8,3.2,4.9.9,2.2,1.6,4.8,2,7.8.2,3.2.5,6.6.5,10.1Z"/>
    <path class="st0" d="M532.1,269.8c-.4-3.3-1.2-6.3-2.3-9-1.2-2.7-2.9-5-5.1-6.6-2.3-1.7-5.2-2.6-8.7-2.6s-7.7,1.5-10.5,4.5c-1.3,1.4-2.5,2.9-3.4,4.6,0-1.8-.3-3.7-.5-5.5v-1.3h-12.7v1.6c.3,2.5.4,5.3.5,8.3,0,3.1,0,6,0,8.6v51.6h13.1v-40.1c0-2.9.3-5.6.8-8s1.3-4.5,2.2-6.1,2-2.9,3.3-3.8c1.2-.8,2.4-1.3,3.8-1.3s2.7.4,3.5,1.1c.9.8,1.6,1.9,2.1,3.3.5,1.5.9,3.1,1,5,.2,1.9.2,3.8.2,5.6v44.3h13.2v-44.3c0-3.3-.2-6.6-.6-9.9Z"/>
  </g>
</svg>